<?xml version="1.0" encoding="UTF-8"?>
<!DOCTYPE svg PUBLIC "-//W3C//DTD SVG 1.1//EN" "http://www.w3.org/Graphics/SVG/1.1/DTD/svg11.dtd">
<svg xmlns="http://www.w3.org/2000/svg" version="1.1" width="368px" height="363px" style="shape-rendering:geometricPrecision; text-rendering:geometricPrecision; image-rendering:optimizeQuality; fill-rule:evenodd; clip-rule:evenodd" xmlns:xlink="http://www.w3.org/1999/xlink">
<g><path style="opacity:0.997" fill="#000000" d="M 178.5,176.5 C 176.747,185.571 174.914,194.571 173,203.5C 172.568,222.175 171.902,240.842 171,259.5C 168.989,270.727 167.989,282.061 168,293.5C 166.721,309.412 164.221,325.079 160.5,340.5C 159.566,341.568 159.232,342.901 159.5,344.5C 157.408,344.561 155.908,345.561 155,347.5C 154.433,350.168 153.933,352.834 153.5,355.5C 150.5,355.5 147.5,355.5 144.5,355.5C 138.136,354.464 132.136,352.63 126.5,350C 108.109,341.561 89.7752,333.061 71.5,324.5C 70.5658,321.248 69.5658,318.081 68.5,315C 70.1307,311.71 70.6307,308.21 70,304.5C 67.8239,304.012 65.9906,303.012 64.5,301.5C 65.0766,299.45 66.4099,298.45 68.5,298.5C 68.3336,290.826 68.5003,283.159 69,275.5C 70.0361,272.705 71.3695,270.038 73,267.5C 74.7103,239.318 75.7103,210.985 76,182.5C 76.6667,181.833 77.3333,181.167 78,180.5C 78.8317,172.147 78.6651,163.813 77.5,155.5C 72.6596,158.825 67.6596,161.992 62.5,165C 57.5198,165.404 52.8531,164.404 48.5,162C 42.1813,155.955 35.6813,150.122 29,144.5C 28.6667,142.833 28.3333,141.167 28,139.5C 25.1392,135.709 22.1392,132.042 19,128.5C 18.3437,123.353 16.5104,118.686 13.5,114.5C 17.006,111.18 19.506,107.18 21,102.5C 31.7171,92.781 42.0505,82.781 52,72.5C 53.5298,70.7738 54.5298,68.7738 55,66.5C 65.3654,57.3006 75.1988,47.6339 84.5,37.5C 86.0568,36.5337 87.3901,35.2004 88.5,33.5C 91.0865,32.52 93.7531,32.1866 96.5,32.5C 96.5,31.5 96.5,30.5 96.5,29.5C 101.897,28.4075 107.23,27.0742 112.5,25.5C 112.5,24.5 112.5,23.5 112.5,22.5C 115.833,21.8333 119.167,21.1667 122.5,20.5C 122.5,19.1667 122.5,17.8333 122.5,16.5C 125.5,16.5 128.5,16.5 131.5,16.5C 131.5,15.5 131.5,14.5 131.5,13.5C 133.167,13.5 134.833,13.5 136.5,13.5C 136.657,11.1824 137.824,9.51569 140,8.5C 140.945,8.90536 141.612,9.57203 142,10.5C 142.333,10.1667 142.667,9.83333 143,9.5C 143.333,15.5 143.667,21.5 144,27.5C 145.869,30.6581 147.536,33.9914 149,37.5C 150.214,39.0488 151.714,40.2155 153.5,41C 152.833,41.3333 152.167,41.6667 151.5,42C 153.9,42.1858 156.234,42.6858 158.5,43.5C 162.639,51.0251 169.472,55.0251 179,55.5C 178.08,86.4513 176.913,117.451 175.5,148.5C 176.504,157.954 177.504,167.287 178.5,176.5 Z"/></g>
<g><path style="opacity:0.996" fill="#000000" d="M 240.5,12.5 C 240.5,13.8333 240.5,15.1667 240.5,16.5C 242.833,16.5 245.167,16.5 247.5,16.5C 247.5,17.8333 247.5,19.1667 247.5,20.5C 251.775,19.7265 254.775,21.2265 256.5,25C 262.241,25.7466 267.574,27.5799 272.5,30.5C 273.386,31.325 273.719,32.325 273.5,33.5C 276.598,33.4125 276.932,33.9125 274.5,35C 275.793,35.49 277.127,35.6567 278.5,35.5C 278.33,36.8221 278.663,37.9887 279.5,39C 282.502,40.2807 285.335,41.7807 288,43.5C 289.087,41.0684 289.587,41.4017 289.5,44.5C 291.216,44.6287 292.883,44.962 294.5,45.5C 301.135,52.9679 308.302,59.9679 316,66.5C 319.587,71.4888 323.254,76.4888 327,81.5C 331.168,84.8889 334.502,88.8889 337,93.5C 344.694,99.8604 351.694,106.86 358,114.5C 358.424,116.515 359.258,118.349 360.5,120C 358.38,124.157 355.213,127.324 351,129.5C 350.667,130.833 350.333,132.167 350,133.5C 347.147,136.052 344.647,138.885 342.5,142C 341.552,142.483 340.552,142.649 339.5,142.5C 338.526,147.086 336.026,150.753 332,153.5C 329.328,158.522 325.828,163.022 321.5,167C 318.23,168.459 314.897,169.626 311.5,170.5C 311.5,169.5 311.5,168.5 311.5,167.5C 310.022,167.762 308.689,167.429 307.5,166.5C 306.158,165.124 304.825,163.791 303.5,162.5C 300.141,157.637 296.974,152.637 294,147.5C 294.949,175.688 295.615,204.021 296,232.5C 296.915,233.328 297.581,234.328 298,235.5C 298.308,259.019 299.142,282.519 300.5,306C 300.333,312.167 300.167,318.333 300,324.5C 295.081,327.452 290.248,330.619 285.5,334C 274.536,338.17 263.536,342.504 252.5,347C 247.931,347.266 243.597,348.266 239.5,350C 238.027,350.71 237.36,351.876 237.5,353.5C 234.482,353.335 231.482,353.502 228.5,354C 228.043,354.414 227.709,354.914 227.5,355.5C 222.492,356.052 217.658,357.052 213,358.5C 211.289,358.561 209.956,357.894 209,356.5C 208.667,349.5 208.333,342.5 208,335.5C 206.211,328.671 204.878,321.671 204,314.5C 201.691,277.499 199.524,240.499 197.5,203.5C 196.725,201.157 196.058,198.823 195.5,196.5C 196.167,150.665 196.833,104.665 197.5,58.5C 198.415,57.6721 199.081,56.6721 199.5,55.5C 202.591,54.104 205.591,52.604 208.5,51C 209.167,49.3333 209.833,47.6667 210.5,46C 213.904,44.2059 217.071,42.7059 220,41.5C 220.839,38.3255 222.505,35.6589 225,33.5C 225.796,30.9615 225.629,28.6282 224.5,26.5C 225.355,23.4307 226.689,20.5973 228.5,18C 232.702,17.7367 235.702,15.7367 237.5,12C 238.749,11.2599 239.749,11.4265 240.5,12.5 Z"/></g>
<g><path style="opacity:0.923" fill="#111415" d="M 240.5,12.5 C 257.616,20.5664 274.616,29.5664 291.5,39.5C 292.206,41.704 293.206,43.704 294.5,45.5C 292.883,44.962 291.216,44.6287 289.5,44.5C 289.587,41.4017 289.087,41.0684 288,43.5C 285.335,41.7807 282.502,40.2807 279.5,39C 278.663,37.9887 278.33,36.8221 278.5,35.5C 277.127,35.6567 275.793,35.49 274.5,35C 276.932,33.9125 276.598,33.4125 273.5,33.5C 273.719,32.325 273.386,31.325 272.5,30.5C 267.574,27.5799 262.241,25.7466 256.5,25C 254.775,21.2265 251.775,19.7265 247.5,20.5C 247.5,19.1667 247.5,17.8333 247.5,16.5C 245.167,16.5 242.833,16.5 240.5,16.5C 240.5,15.1667 240.5,13.8333 240.5,12.5 Z"/></g>
<g><path style="opacity:0.173" fill="#151819" d="M 178.5,176.5 C 177.504,167.287 176.504,157.954 175.5,148.5C 176.913,117.451 178.08,86.4513 179,55.5C 169.472,55.0251 162.639,51.0251 158.5,43.5C 156.234,42.6858 153.9,42.1858 151.5,42C 152.167,41.6667 152.833,41.3333 153.5,41C 151.714,40.2155 150.214,39.0488 149,37.5C 147.536,33.9914 145.869,30.6581 144,27.5C 143.667,21.5 143.333,15.5 143,9.5C 142.667,9.83333 142.333,10.1667 142,10.5C 141.612,9.57203 140.945,8.90536 140,8.5C 137.824,9.51569 136.657,11.1824 136.5,13.5C 134.833,13.5 133.167,13.5 131.5,13.5C 131.5,14.5 131.5,15.5 131.5,16.5C 128.5,16.5 125.5,16.5 122.5,16.5C 122.5,17.8333 122.5,19.1667 122.5,20.5C 119.167,21.1667 115.833,21.8333 112.5,22.5C 112.5,23.5 112.5,24.5 112.5,25.5C 107.23,27.0742 101.897,28.4075 96.5,29.5C 96.5,30.5 96.5,31.5 96.5,32.5C 93.7531,32.1866 91.0865,32.52 88.5,33.5C 87.3901,35.2004 86.0568,36.5337 84.5,37.5C 85.0289,35.4166 86.0289,33.5833 87.5,32C 99.6578,28.2526 110.991,22.9192 121.5,16C 126.104,15.0768 130.437,13.4101 134.5,11C 137.922,4.08472 141.422,3.91806 145,10.5C 145.013,20.207 148.013,28.8737 154,36.5C 161.739,44.1049 170.572,49.7716 180.5,53.5C 181.799,56.5772 181.632,59.5772 180,62.5C 179.263,90.5072 178.43,118.507 177.5,146.5C 179.168,156.486 179.501,166.486 178.5,176.5 Z"/></g>
<g><path style="opacity:0.257" fill="#121415" d="M 224.5,26.5 C 225.629,28.6282 225.796,30.9615 225,33.5C 222.505,35.6589 220.839,38.3255 220,41.5C 217.071,42.7059 213.904,44.2059 210.5,46C 209.833,47.6667 209.167,49.3333 208.5,51C 205.591,52.604 202.591,54.104 199.5,55.5C 199.081,56.6721 198.415,57.6721 197.5,58.5C 196.833,104.665 196.167,150.665 195.5,196.5C 195.712,155.181 195.379,113.681 194.5,72C 194.901,66.4911 195.401,60.9911 196,55.5C 205.558,48.9485 214.224,41.2819 222,32.5C 223.122,30.5932 223.955,28.5932 224.5,26.5 Z"/></g>
<g><path style="opacity:1" fill="#0f1916" d="M 160.5,340.5 C 161.524,346.883 159.857,352.383 155.5,357C 151.709,356.969 148.042,356.469 144.5,355.5C 147.5,355.5 150.5,355.5 153.5,355.5C 153.933,352.834 154.433,350.168 155,347.5C 155.908,345.561 157.408,344.561 159.5,344.5C 159.232,342.901 159.566,341.568 160.5,340.5 Z"/></g>
</svg>
