<?xml version="1.0" encoding="UTF-8"?>
<!DOCTYPE svg PUBLIC "-//W3C//DTD SVG 1.1//EN" "http://www.w3.org/Graphics/SVG/1.1/DTD/svg11.dtd">
<svg xmlns="http://www.w3.org/2000/svg" version="1.1" width="196px" height="407px" style="shape-rendering:geometricPrecision; text-rendering:geometricPrecision; image-rendering:optimizeQuality; fill-rule:evenodd; clip-rule:evenodd" xmlns:xlink="http://www.w3.org/1999/xlink">
<g><path style="opacity:0.265" fill="#35414a" d="M 38.5,5.5 C 43.2306,6.66618 47.8973,7.66618 52.5,8.5C 48.5,8.5 44.5,8.5 40.5,8.5C 38.9519,8.17876 38.2852,7.17876 38.5,5.5 Z"/></g>
<g><path style="opacity:0.196" fill="#343e46" d="M 154.5,5.5 C 154.5,6.5 154.5,7.5 154.5,8.5C 148.833,8.5 143.167,8.5 137.5,8.5C 136.662,8.84171 136.328,9.50838 136.5,10.5C 132.629,10.815 128.962,10.4816 125.5,9.5C 131.582,9.44805 137.415,8.44805 143,6.5C 147.082,7.73748 150.915,7.40415 154.5,5.5 Z"/></g>
<g><path style="opacity:0.884" fill="#697e92" d="M 40.5,8.5 C 44.5,8.5 48.5,8.5 52.5,8.5C 53.1667,8.5 53.5,8.83333 53.5,9.5C 53.5,10.1667 53.5,10.8333 53.5,11.5C 50.8559,11.8399 48.5225,11.1733 46.5,9.5C 45.5832,10.1272 44.5832,10.4606 43.5,10.5C 42.5,10.5 41.5,10.5 40.5,10.5C 40.5,9.83333 40.5,9.16667 40.5,8.5 Z"/></g>
<g><path style="opacity:0.29" fill="#314452" d="M 53.5,9.5 C 77.0425,11.6008 100.709,11.9341 124.5,10.5C 111.005,12.1968 97.1721,13.1968 83,13.5C 80.0407,13.2302 76.874,12.8968 73.5,12.5C 67.021,11.5093 60.3543,11.176 53.5,11.5C 53.5,10.8333 53.5,10.1667 53.5,9.5 Z"/></g>
<g><path style="opacity:0.353" fill="#4d5764" d="M 164.5,5.5 C 167.729,7.56616 169.396,10.5662 169.5,14.5C 168.5,14.5 167.5,14.5 166.5,14.5C 166.442,11.3356 165.776,8.33563 164.5,5.5 Z"/></g>
<g><path style="opacity:0.996" fill="#40647d" d="M 125.5,9.5 C 128.962,10.4816 132.629,10.815 136.5,10.5C 133.642,11.166 130.642,11.8326 127.5,12.5C 127.291,13.086 126.957,13.586 126.5,14C 119.996,14.0414 113.662,14.708 107.5,16C 99.1667,16.6667 90.8333,16.6667 82.5,16C 79.7216,14.6081 76.7216,14.1081 73.5,14.5C 73.5,13.8333 73.5,13.1667 73.5,12.5C 76.874,12.8968 80.0407,13.2302 83,13.5C 97.1721,13.1968 111.005,12.1968 124.5,10.5C 124.5,9.83333 124.833,9.5 125.5,9.5 Z"/></g>
<g><path style="opacity:0.314" fill="#535c67" d="M 24.5,6.5 C 24.5,7.16667 24.8333,7.5 25.5,7.5C 23.0914,12.8067 21.758,18.4734 21.5,24.5C 20.5,24.5 19.5,24.5 18.5,24.5C 18.5,27.8333 18.5,31.1667 18.5,34.5C 17.5,34.5 16.5,34.5 15.5,34.5C 16.349,30.8987 17.0157,27.232 17.5,23.5C 18.552,23.6495 19.552,23.4828 20.5,23C 19.579,18.1249 20.079,13.2916 22,8.5C 22.7083,7.61947 23.5416,6.9528 24.5,6.5 Z"/></g>
<g><path style="opacity:1" fill="#77a5d6" d="M 53.5,11.5 C 56.778,12.3901 60.1113,13.3901 63.5,14.5C 64.8758,17.658 65.5424,20.9913 65.5,24.5C 58.2933,24.8892 51.2933,24.2226 44.5,22.5C 44.5,21.5 44.5,20.5 44.5,19.5C 42.5,19.5 40.5,19.5 38.5,19.5C 38.5,17.8333 38.5,16.1667 38.5,14.5C 43.1696,13.3414 47.8363,13.1747 52.5,14C 49.1818,13.2462 46.1818,12.0795 43.5,10.5C 44.5832,10.4606 45.5832,10.1272 46.5,9.5C 48.5225,11.1733 50.8559,11.8399 53.5,11.5 Z"/></g>
<g><path style="opacity:1" fill="#86aed8" d="M 137.5,8.5 C 139.474,10.2869 141.974,11.2869 145,11.5C 147.815,10.2726 149.982,10.9393 151.5,13.5C 149.456,12.2216 147.456,12.3883 145.5,14C 141.848,14.4986 138.182,14.6653 134.5,14.5C 134.688,16.1033 134.188,17.4366 133,18.5C 129.798,17.0108 127.298,17.8441 125.5,21C 128.351,23.9246 131.851,25.0913 136,24.5C 139.284,24.0081 142.45,23.5081 145.5,23C 146.293,26.4106 146.793,29.9106 147,33.5C 149.635,35.9261 152.801,37.2594 156.5,37.5C 160.765,36.5614 165.098,36.2281 169.5,36.5C 170.371,39.003 171.037,41.6697 171.5,44.5C 162.836,43.9381 154.169,43.1047 145.5,42C 142.329,38.8615 140.663,35.0282 140.5,30.5C 135.869,29.3384 131.202,29.1717 126.5,30C 125.359,30.7412 125.359,31.5745 126.5,32.5C 125.975,33.1924 125.308,33.6924 124.5,34C 121.854,34.4974 119.187,34.6641 116.5,34.5C 116.5,32.8333 116.5,31.1667 116.5,29.5C 109.864,28.9782 109.864,28.1449 116.5,27C 119.986,25.0528 120.319,22.7195 117.5,20C 112.161,20.164 106.828,20.664 101.5,21.5C 101.5,23.8333 101.5,26.1667 101.5,28.5C 103.527,28.3379 105.527,28.5045 107.5,29C 108.074,30.9193 108.407,32.7526 108.5,34.5C 107.505,45.9989 106.672,57.6655 106,69.5C 104.279,72.6226 103.112,75.956 102.5,79.5C 98.0365,80.9012 93.7032,82.5679 89.5,84.5C 89.5,87.8333 89.5,91.1667 89.5,94.5C 88.5,94.5 87.5,94.5 86.5,94.5C 86.6666,75.1638 86.5,55.8305 86,36.5C 84.6485,34.4062 84.1485,32.0728 84.5,29.5C 79.9327,28.177 79.7661,26.8437 84,25.5C 84.7885,23.8353 85.1218,22.1686 85,20.5C 81.9433,19.5495 78.7766,19.2161 75.5,19.5C 75.423,22.5092 76.7563,24.6759 79.5,26C 77.6529,29.3517 75.3196,32.3517 72.5,35C 69.2683,34.6114 66.1016,34.7781 63,35.5C 60.9838,34.0448 60.1505,32.0448 60.5,29.5C 57.1667,29.5 53.8333,29.5 50.5,29.5C 49.2025,32.7622 49.5358,35.9289 51.5,39C 44.9188,41.397 38.5855,44.2303 32.5,47.5C 31.5713,48.6888 31.238,50.0222 31.5,51.5C 31.6495,52.552 31.4828,53.552 31,54.5C 29.6667,53.1667 28.3333,53.1667 27,54.5C 25.5399,52.028 24.5399,49.3613 24,46.5C 22.3333,45.1667 20.6667,45.1667 19,46.5C 18.385,49.3029 17.2183,51.6363 15.5,53.5C 16.2734,48.0139 17.9401,42.8472 20.5,38C 20.3516,36.293 20.0182,34.6264 19.5,33C 21.5094,28.6619 23.0094,24.1619 24,19.5C 25.3333,18.1667 26.6667,18.1667 28,19.5C 28.4983,22.8168 28.665,26.1501 28.5,29.5C 31.3085,29.6933 33.9752,30.36 36.5,31.5C 37.4419,26.1946 37.6086,20.8613 37,15.5C 35.7949,14.9288 34.6283,14.2621 33.5,13.5C 34.6908,11.2267 36.3575,10.8934 38.5,12.5C 39.7133,12.2528 40.38,11.5862 40.5,10.5C 41.5,10.5 42.5,10.5 43.5,10.5C 46.1818,12.0795 49.1818,13.2462 52.5,14C 47.8363,13.1747 43.1696,13.3414 38.5,14.5C 38.5,16.1667 38.5,17.8333 38.5,19.5C 40.5,19.5 42.5,19.5 44.5,19.5C 44.5,20.5 44.5,21.5 44.5,22.5C 51.2933,24.2226 58.2933,24.8892 65.5,24.5C 65.5424,20.9913 64.8758,17.658 63.5,14.5C 66.8333,14.5 70.1667,14.5 73.5,14.5C 76.7216,14.1081 79.7216,14.6081 82.5,16C 90.8333,16.6667 99.1667,16.6667 107.5,16C 113.662,14.708 119.996,14.0414 126.5,14C 126.957,13.586 127.291,13.086 127.5,12.5C 130.642,11.8326 133.642,11.166 136.5,10.5C 136.328,9.50838 136.662,8.84171 137.5,8.5 Z"/></g>
<g><path style="opacity:1" fill="#a2b5c3" d="M 96.5,26.5 C 96.5858,27.4959 96.2524,28.3292 95.5,29C 92.854,29.4974 90.1873,29.6641 87.5,29.5C 87.7287,25.7746 88.7287,22.2746 90.5,19C 96.8938,18.2148 98.8938,20.7148 96.5,26.5 Z"/></g>
<g><path style="opacity:1" fill="#3e413b" d="M 96.5,26.5 C 95.0222,26.762 93.6888,26.4287 92.5,25.5C 93.1667,25.1667 93.8333,24.8333 94.5,24.5C 95.7133,24.7472 96.38,25.4138 96.5,26.5 Z"/></g>
<g><path style="opacity:1" fill="#567fa0" d="M 53.5,11.5 C 60.3543,11.176 67.021,11.5093 73.5,12.5C 73.5,13.1667 73.5,13.8333 73.5,14.5C 70.1667,14.5 66.8333,14.5 63.5,14.5C 60.1113,13.3901 56.778,12.3901 53.5,11.5 Z"/></g>
<g><path style="opacity:1" fill="#7ba6d7" d="M 169.5,36.5 C 165.098,36.2281 160.765,36.5614 156.5,37.5C 152.801,37.2594 149.635,35.9261 147,33.5C 146.793,29.9106 146.293,26.4106 145.5,23C 142.45,23.5081 139.284,24.0081 136,24.5C 131.851,25.0913 128.351,23.9246 125.5,21C 127.298,17.8441 129.798,17.0108 133,18.5C 134.188,17.4366 134.688,16.1033 134.5,14.5C 138.182,14.6653 141.848,14.4986 145.5,14C 147.456,12.3883 149.456,12.2216 151.5,13.5C 151.188,17.6746 151.855,21.6746 153.5,25.5C 155.396,26.4656 157.396,26.7989 159.5,26.5C 160.368,24.1033 161.035,21.6033 161.5,19C 161.167,17.5 160.833,16 160.5,14.5C 159.264,15.2458 157.93,15.5792 156.5,15.5C 156.137,13.0885 157.137,11.5885 159.5,11C 161.367,10.2888 162.867,10.7888 164,12.5C 164.379,16.8277 165.712,20.8277 168,24.5C 168.501,28.5101 169.001,32.5101 169.5,36.5 Z"/></g>
<g><path style="opacity:0.026" fill="#2d373c" d="M 15.5,34.5 C 16.069,38.3293 15.4023,41.6627 13.5,44.5C 14.0965,41.0588 14.7632,37.7254 15.5,34.5 Z"/></g>
<g><path style="opacity:1" fill="#76a4da" d="M 171.5,44.5 C 172.197,47.4232 173.197,50.2565 174.5,53C 169.645,55.8938 169.312,59.2271 173.5,63C 172.663,64.0113 172.33,65.1779 172.5,66.5C 174.48,74.8419 172.647,82.1753 167,88.5C 166.833,89.8333 166.667,91.1667 166.5,92.5C 168.104,98.3972 168.771,104.397 168.5,110.5C 155.829,110.333 143.162,110.5 130.5,111C 131.016,113.033 130.35,113.033 128.5,111C 122.843,110.501 117.176,110.334 111.5,110.5C 111.5,111.833 111.5,113.167 111.5,114.5C 113.103,114.312 114.437,114.812 115.5,116C 113.671,116.273 112.171,117.107 111,118.5C 110.667,117.167 110.333,115.833 110,114.5C 109.08,114.07 108.247,113.736 107.5,113.5C 108.653,110.338 107.653,109.671 104.5,111.5C 102.473,108.651 100.973,108.984 100,112.5C 99.1347,109.797 97.3013,108.464 94.5,108.5C 91.9328,109.664 89.2662,110.33 86.5,110.5C 86.4971,114.524 86.1638,118.524 85.5,122.5C 86.8905,129.661 87.8905,136.828 88.5,144C 87.8838,147.863 87.0505,151.696 86,155.5C 85.4496,142.533 84.6163,129.7 83.5,117C 82.9016,108.776 82.235,108.61 81.5,116.5C 80.5,116.5 79.5,116.5 78.5,116.5C 78.3143,123.028 78.6476,129.528 79.5,136C 79.5633,143.086 77.5633,149.419 73.5,155C 71.8659,155.494 70.1992,155.66 68.5,155.5C 68.33,154.178 68.6634,153.011 69.5,152C 67.1253,149.593 66.1253,150.093 66.5,153.5C 65.5,153.5 64.5,153.5 63.5,153.5C 63.5,150.167 63.5,146.833 63.5,143.5C 57.5,143.5 51.5,143.5 45.5,143.5C 45.9804,146.685 45.3137,149.519 43.5,152C 44.4158,152.278 45.0825,152.778 45.5,153.5C 44.5,153.5 43.5,153.5 42.5,153.5C 42.5,151.833 42.5,150.167 42.5,148.5C 38.5,148.5 34.5,148.5 30.5,148.5C 30.17,155.2 30.5033,161.866 31.5,168.5C 37.4025,166.294 43.5691,164.961 50,164.5C 52.6629,164.826 55.1629,165.659 57.5,167C 54.2301,167.995 50.8967,168.828 47.5,169.5C 49.5,170.333 51.5,171.167 53.5,172C 52.3774,173.044 51.0441,173.71 49.5,174C 53.7565,173.361 58.0899,172.861 62.5,172.5C 62.5,184.5 62.5,196.5 62.5,208.5C 65.1985,208.534 67.6985,207.867 70,206.5C 70.3333,201.5 70.6667,196.5 71,191.5C 72.2682,191.616 73.6015,191.949 75,192.5C 75.5,193.5 76,194.5 76.5,195.5C 75.7789,200.476 75.1123,205.476 74.5,210.5C 74.6082,211.442 74.9415,212.275 75.5,213C 74.8333,215.667 74.1667,218.333 73.5,221C 73.8333,221.333 74.1667,221.667 74.5,222C 73.2068,222.49 71.8734,222.657 70.5,222.5C 69.5409,236.173 69.5409,249.839 70.5,263.5C 70.0611,272.357 69.3944,281.19 68.5,290C 69.0735,291.607 69.7402,293.107 70.5,294.5C 69.1667,294.5 67.8333,294.5 66.5,294.5C 66.5,270.5 66.5,246.5 66.5,222.5C 65.1667,222.5 63.8333,222.5 62.5,222.5C 62.5,249.833 62.5,277.167 62.5,304.5C 64.5,304.5 66.5,304.5 68.5,304.5C 68.8507,310.262 68.3507,315.928 67,321.5C 66.5172,320.552 66.3505,319.552 66.5,318.5C 65.1667,318.5 63.8333,318.5 62.5,318.5C 62.1758,322.555 62.5091,326.555 63.5,330.5C 65.9958,327.745 66.9958,328.412 66.5,332.5C 66.9958,336.588 65.9958,337.255 63.5,334.5C 62.1667,340.5 62.1667,346.5 63.5,352.5C 64.4776,352.023 65.3109,351.357 66,350.5C 66.7096,351.973 67.8762,352.64 69.5,352.5C 68.9132,358.303 69.5798,363.803 71.5,369C 63.5794,369.52 63.5794,370.353 71.5,371.5C 68.1952,374.271 64.5285,374.938 60.5,373.5C 56.5013,374.333 52.5013,375.166 48.5,376C 47.6198,377.356 47.2865,378.856 47.5,380.5C 41.1667,380.5 34.8333,380.5 28.5,380.5C 26.8525,376.716 25.6859,372.716 25,368.5C 24.5001,355.838 24.3334,343.171 24.5,330.5C 30.1404,332.123 31.8071,335.789 29.5,341.5C 30.1667,343.833 30.8333,346.167 31.5,348.5C 30.7515,350.036 29.7515,351.369 28.5,352.5C 29.2826,357.447 29.7826,362.447 30,367.5C 32.0581,368.109 32.8914,369.109 32.5,370.5C 33.1667,369.5 33.8333,368.5 34.5,367.5C 35.9427,357.928 34.9427,348.595 31.5,339.5C 31.6667,338.167 31.8333,336.833 32,335.5C 32.3333,335.833 32.6667,336.167 33,336.5C 33.6667,330.5 33.6667,324.5 33,318.5C 32.147,320.935 31.147,323.269 30,325.5C 28.8976,321.584 28.231,317.584 28,313.5C 27.7811,314.938 27.2811,316.271 26.5,317.5C 25.433,315.441 24.0996,313.608 22.5,312C 23.9275,307.158 23.2608,302.658 20.5,298.5C 21.6645,290.965 21.3312,283.465 19.5,276C 19.7586,272.927 20.7586,270.261 22.5,268C 21.7154,266.049 20.7154,264.215 19.5,262.5C 19.8333,261.833 20.1667,261.167 20.5,260.5C 19.3717,259.738 18.2051,259.071 17,258.5C 14.2128,247.724 13.7128,237.058 15.5,226.5C 14.1424,221.559 13.6424,216.559 14,211.5C 14.4186,212.672 15.0853,213.672 16,214.5C 16.8332,187.161 16.6665,159.827 15.5,132.5C 14.8076,131.975 14.3076,131.308 14,130.5C 13.6667,136.5 13.3333,142.5 13,148.5C 11.9421,141.719 11.4421,134.886 11.5,128C 12.7077,111.6 14.0411,95.2664 15.5,79C 15.0516,70.7688 14.7182,62.6021 14.5,54.5C 15.1667,54.5 15.5,54.1667 15.5,53.5C 17.2183,51.6363 18.385,49.3029 19,46.5C 20.6667,45.1667 22.3333,45.1667 24,46.5C 24.5399,49.3613 25.5399,52.028 27,54.5C 28.3333,53.1667 29.6667,53.1667 31,54.5C 31.4828,53.552 31.6495,52.552 31.5,51.5C 32.6819,49.9005 34.0153,49.5672 35.5,50.5C 37.3217,47.67 39.8217,45.67 43,44.5C 43.9234,45.7588 44.7568,47.0921 45.5,48.5C 46.7321,47.8555 48.0654,47.6888 49.5,48C 52.2176,43.2184 53.7176,43.7184 54,49.5C 54.2717,43.3299 54.105,37.3299 53.5,31.5C 56.3227,31.0254 58.3227,32.0254 59.5,34.5C 60.3851,39.1219 60.7184,43.7885 60.5,48.5C 61.5,48.5 62.5,48.5 63.5,48.5C 63.5726,45.0504 65.4059,43.717 69,44.5C 71.477,45.0505 73.8103,45.0505 76,44.5C 76.8333,45.5 77.6667,46.5 78.5,47.5C 79.8333,63.5 79.8333,79.5 78.5,95.5C 75.9758,78.5336 73.9758,78.8669 72.5,96.5C 79.5293,96.6231 86.5293,96.2897 93.5,95.5C 93.5,93.5 93.5,91.5 93.5,89.5C 96.6267,89.8756 99.6267,89.8756 102.5,89.5C 105.675,85.5965 108.008,81.2632 109.5,76.5C 110.5,76.5 111.5,76.5 112.5,76.5C 112.666,69.825 112.5,63.1583 112,56.5C 109.412,52.114 108.912,47.4473 110.5,42.5C 110.253,39.6509 109.587,36.9843 108.5,34.5C 108.407,32.7526 108.074,30.9193 107.5,29C 105.527,28.5045 103.527,28.3379 101.5,28.5C 101.5,26.1667 101.5,23.8333 101.5,21.5C 106.828,20.664 112.161,20.164 117.5,20C 120.319,22.7195 119.986,25.0528 116.5,27C 109.864,28.1449 109.864,28.9782 116.5,29.5C 116.5,31.1667 116.5,32.8333 116.5,34.5C 119.187,34.6641 121.854,34.4974 124.5,34C 125.308,33.6924 125.975,33.1924 126.5,32.5C 125.359,31.5745 125.359,30.7412 126.5,30C 131.202,29.1717 135.869,29.3384 140.5,30.5C 140.663,35.0282 142.329,38.8615 145.5,42C 154.169,43.1047 162.836,43.9381 171.5,44.5 Z"/></g>
<g><path style="opacity:0.533" fill="#485563" d="M 169.5,23.5 C 171.237,26.008 172.07,29.008 172,32.5C 174.303,33.7439 174.803,35.4106 173.5,37.5C 174.17,39.8631 174.837,42.1964 175.5,44.5C 174.5,44.5 173.5,44.5 172.5,44.5C 172.01,37.3938 171.01,30.3938 169.5,23.5 Z"/></g>
<g><path style="opacity:1" fill="#91adcd" d="M 38.5,5.5 C 38.2852,7.17876 38.9519,8.17876 40.5,8.5C 40.5,9.16667 40.5,9.83333 40.5,10.5C 40.38,11.5862 39.7133,12.2528 38.5,12.5C 36.3575,10.8934 34.6908,11.2267 33.5,13.5C 34.6283,14.2621 35.7949,14.9288 37,15.5C 37.6086,20.8613 37.4419,26.1946 36.5,31.5C 33.9752,30.36 31.3085,29.6933 28.5,29.5C 28.665,26.1501 28.4983,22.8168 28,19.5C 26.6667,18.1667 25.3333,18.1667 24,19.5C 23.0094,24.1619 21.5094,28.6619 19.5,33C 20.0182,34.6264 20.3516,36.293 20.5,38C 17.9401,42.8472 16.2734,48.0139 15.5,53.5C 15.5,54.1667 15.1667,54.5 14.5,54.5C 14.1667,54.5 13.8333,54.5 13.5,54.5C 13.5,51.1667 13.5,47.8333 13.5,44.5C 15.4023,41.6627 16.069,38.3293 15.5,34.5C 16.5,34.5 17.5,34.5 18.5,34.5C 18.5,31.1667 18.5,27.8333 18.5,24.5C 19.5,24.5 20.5,24.5 21.5,24.5C 21.758,18.4734 23.0914,12.8067 25.5,7.5C 24.8333,7.5 24.5,7.16667 24.5,6.5C 24.6107,5.88258 24.944,5.38258 25.5,5C 27.1667,4.83333 28.8333,4.66667 30.5,4.5C 33.553,4.72873 36.2196,5.06206 38.5,5.5 Z"/></g>
<g><path style="opacity:0.208" fill="#3d4758" d="M 13.5,44.5 C 13.5,47.8333 13.5,51.1667 13.5,54.5C 13.6633,56.8568 13.4966,59.1902 13,61.5C 12.3292,62.2524 11.4959,62.5858 10.5,62.5C 11.8154,56.3736 12.8154,50.3736 13.5,44.5 Z"/></g>
<g><path style="opacity:0.094" fill="#3b4658" d="M 175.5,44.5 C 176.207,50.0655 176.874,55.7322 177.5,61.5C 175.55,56.2649 174.883,50.5982 175.5,44.5 Z"/></g>
<g><path style="opacity:1" fill="#78a5d8" d="M 92.5,31.5 C 95.1667,31.5 97.8333,31.5 100.5,31.5C 102.393,45.8719 102.393,60.2052 100.5,74.5C 97.507,75.4861 94.507,76.4861 91.5,77.5C 91.2965,75.6096 91.9632,74.1096 93.5,73C 92.8742,72.2496 92.3742,71.4162 92,70.5C 91.8333,65.8333 91.6667,61.1667 91.5,56.5C 91.7661,48.0326 92.0995,39.6993 92.5,31.5 Z"/></g>
<g><path style="opacity:0.067" fill="#242d3d" d="M 178.5,62.5 C 179.198,69.7336 179.864,77.067 180.5,84.5C 178.537,77.5762 177.87,70.2428 178.5,62.5 Z"/></g>
<g><path style="opacity:1" fill="#77a5d7" d="M 108.5,34.5 C 109.587,36.9843 110.253,39.6509 110.5,42.5C 108.912,47.4473 109.412,52.114 112,56.5C 112.5,63.1583 112.666,69.825 112.5,76.5C 111.5,76.5 110.5,76.5 109.5,76.5C 108.008,81.2632 105.675,85.5965 102.5,89.5C 99.6267,89.8756 96.6267,89.8756 93.5,89.5C 93.5,91.5 93.5,93.5 93.5,95.5C 86.5293,96.2897 79.5293,96.6231 72.5,96.5C 73.9758,78.8669 75.9758,78.5336 78.5,95.5C 79.8333,79.5 79.8333,63.5 78.5,47.5C 77.6667,46.5 76.8333,45.5 76,44.5C 73.8103,45.0505 71.477,45.0505 69,44.5C 65.4059,43.717 63.5726,45.0504 63.5,48.5C 62.5,48.5 61.5,48.5 60.5,48.5C 60.7184,43.7885 60.3851,39.1219 59.5,34.5C 58.3227,32.0254 56.3227,31.0254 53.5,31.5C 54.105,37.3299 54.2717,43.3299 54,49.5C 53.7176,43.7184 52.2176,43.2184 49.5,48C 48.0654,47.6888 46.7321,47.8555 45.5,48.5C 44.7568,47.0921 43.9234,45.7588 43,44.5C 39.8217,45.67 37.3217,47.67 35.5,50.5C 34.0153,49.5672 32.6819,49.9005 31.5,51.5C 31.238,50.0222 31.5713,48.6888 32.5,47.5C 38.5855,44.2303 44.9188,41.397 51.5,39C 49.5358,35.9289 49.2025,32.7622 50.5,29.5C 53.8333,29.5 57.1667,29.5 60.5,29.5C 60.1505,32.0448 60.9838,34.0448 63,35.5C 66.1016,34.7781 69.2683,34.6114 72.5,35C 75.3196,32.3517 77.6529,29.3517 79.5,26C 76.7563,24.6759 75.423,22.5092 75.5,19.5C 78.7766,19.2161 81.9433,19.5495 85,20.5C 85.1218,22.1686 84.7885,23.8353 84,25.5C 79.7661,26.8437 79.9327,28.177 84.5,29.5C 84.1485,32.0728 84.6485,34.4062 86,36.5C 86.5,55.8305 86.6666,75.1638 86.5,94.5C 87.5,94.5 88.5,94.5 89.5,94.5C 89.5,91.1667 89.5,87.8333 89.5,84.5C 93.7032,82.5679 98.0365,80.9012 102.5,79.5C 103.112,75.956 104.279,72.6226 106,69.5C 106.672,57.6655 107.505,45.9989 108.5,34.5 Z"/></g>
<g><path style="opacity:0.124" fill="#3a4a5c" d="M 180.5,84.5 C 181.181,100.402 181.847,116.402 182.5,132.5C 181.833,132.5 181.167,132.5 180.5,132.5C 180.5,116.5 180.5,100.5 180.5,84.5 Z"/></g>
<g><path style="opacity:1" fill="#76a4db" d="M 175.5,209.5 C 175.057,220.715 175.057,232.382 175.5,244.5C 174.088,253.461 173.088,262.461 172.5,271.5C 171.504,271.414 170.671,271.748 170,272.5C 169.264,277.866 169.431,283.2 170.5,288.5C 170.101,290.197 169.601,291.863 169,293.5C 164.55,284.17 164.383,274.837 168.5,265.5C 168.599,261.995 167.932,258.662 166.5,255.5C 166.095,263.839 164.762,271.839 162.5,279.5C 164.759,287.247 165.759,295.247 165.5,303.5C 164.167,303.5 162.833,303.5 161.5,303.5C 160.966,319.657 159.8,334.99 158,349.5C 155.806,352.017 153.806,351.684 152,348.5C 150.755,354.39 150.088,360.39 150,366.5C 149,367.833 148,367.833 147,366.5C 146.501,361.177 146.334,355.844 146.5,350.5C 145.167,350.5 143.833,350.5 142.5,350.5C 142.5,356.5 142.5,362.5 142.5,368.5C 133.496,369.12 124.829,369.12 116.5,368.5C 116.5,362.5 116.5,356.5 116.5,350.5C 115.167,350.5 113.833,350.5 112.5,350.5C 112.243,343.575 112.243,336.741 112.5,330C 111.151,321.059 110.151,312.226 109.5,303.5C 109.053,287.334 108.386,271.334 107.5,255.5C 105.323,246.809 104.99,238.143 106.5,229.5C 107.745,226.933 109.412,224.599 111.5,222.5C 109.427,219.881 108.427,216.881 108.5,213.5C 109.822,213.67 110.989,213.337 112,212.5C 112.297,207.309 112.797,202.143 113.5,197C 112.757,175.484 112.424,153.984 112.5,132.5C 114.199,132.34 115.866,132.506 117.5,133C 116.294,134.018 116.627,134.518 118.5,134.5C 121.966,132.832 125.133,133.165 128,135.5C 137.958,134.187 147.958,134.187 158,135.5C 160.244,135.133 160.744,134.133 159.5,132.5C 159.808,131.692 160.308,131.025 161,130.5C 162.555,132.515 164.389,132.848 166.5,131.5C 165.167,130.833 163.833,130.167 162.5,129.5C 165.086,128.52 167.753,128.187 170.5,128.5C 170.838,130.854 171.338,133.187 172,135.5C 172.333,147.833 172.667,160.167 173,172.5C 173.414,172.957 173.914,173.291 174.5,173.5C 175.25,179.499 175.916,185.499 176.5,191.5C 175.586,197.459 175.253,203.459 175.5,209.5 Z"/></g>
<g><path style="opacity:1" fill="#75a2d2" d="M 13.5,54.5 C 13.8333,54.5 14.1667,54.5 14.5,54.5C 14.7182,62.6021 15.0516,70.7688 15.5,79C 14.0411,95.2664 12.7077,111.6 11.5,128C 11.4421,134.886 11.9421,141.719 13,148.5C 13.3333,142.5 13.6667,136.5 14,130.5C 14.3076,131.308 14.8076,131.975 15.5,132.5C 16.6665,159.827 16.8332,187.161 16,214.5C 15.0853,213.672 14.4186,212.672 14,211.5C 13.6424,216.559 14.1424,221.559 15.5,226.5C 13.7128,237.058 14.2128,247.724 17,258.5C 18.2051,259.071 19.3717,259.738 20.5,260.5C 20.1667,261.167 19.8333,261.833 19.5,262.5C 20.7154,264.215 21.7154,266.049 22.5,268C 20.7586,270.261 19.7586,272.927 19.5,276C 21.3312,283.465 21.6645,290.965 20.5,298.5C 19.6266,286.241 18.1266,273.908 16,261.5C 15.6264,259.509 14.793,257.842 13.5,256.5C 13.5,253.167 13.5,249.833 13.5,246.5C 13.0884,234.793 12.0884,223.126 10.5,211.5C 9.22338,175.331 9.22338,139.164 10.5,103C 10.0237,98.1133 9.357,93.2799 8.5,88.5C 9.13807,79.8022 9.80474,71.1355 10.5,62.5C 11.4959,62.5858 12.3292,62.2524 13,61.5C 13.4966,59.1902 13.6633,56.8568 13.5,54.5 Z"/></g>
<g><path style="opacity:1" fill="#5389bc" d="M 63.5,153.5 C 61.712,153.215 60.0453,153.548 58.5,154.5C 60.1045,156.179 60.7711,158.179 60.5,160.5C 53.4921,160.666 46.4921,160.5 39.5,160C 40.3802,158.644 40.7135,157.144 40.5,155.5C 42.7812,155.923 44.4479,155.256 45.5,153.5C 45.0825,152.778 44.4158,152.278 43.5,152C 45.3137,149.519 45.9804,146.685 45.5,143.5C 51.5,143.5 57.5,143.5 63.5,143.5C 63.5,146.833 63.5,150.167 63.5,153.5 Z"/></g>
<g><path style="opacity:0.52" fill="#616a75" d="M 180.5,132.5 C 181.167,132.5 181.833,132.5 182.5,132.5C 183.707,139.634 184.373,146.968 184.5,154.5C 184.187,161.099 183.854,167.433 183.5,173.5C 182.5,173.5 181.5,173.5 180.5,173.5C 181.795,166.904 182.462,160.071 182.5,153C 182.462,145.929 181.795,139.096 180.5,132.5 Z"/></g>
<g><path style="opacity:1" fill="#8daaca" d="M 164.5,5.5 C 165.776,8.33563 166.442,11.3356 166.5,14.5C 167.5,14.5 168.5,14.5 169.5,14.5C 170.775,17.3962 170.775,20.3962 169.5,23.5C 171.01,30.3938 172.01,37.3938 172.5,44.5C 173.5,44.5 174.5,44.5 175.5,44.5C 174.883,50.5982 175.55,56.2649 177.5,61.5C 178.167,61.5 178.5,61.8333 178.5,62.5C 177.87,70.2428 178.537,77.5762 180.5,84.5C 180.5,100.5 180.5,116.5 180.5,132.5C 181.795,139.096 182.462,145.929 182.5,153C 182.462,160.071 181.795,166.904 180.5,173.5C 181.128,188.674 180.462,203.674 178.5,218.5C 180.312,221.899 180.979,225.566 180.5,229.5C 178.537,236.424 177.87,243.757 178.5,251.5C 177.5,251.5 176.5,251.5 175.5,251.5C 175.5,258.167 175.5,264.833 175.5,271.5C 173.541,277.75 172.874,284.416 173.5,291.5C 173.5,304.5 173.5,317.5 173.5,330.5C 173.167,330.5 172.833,330.5 172.5,330.5C 172.5,318.167 172.5,305.833 172.5,293.5C 172.5,286.167 172.5,278.833 172.5,271.5C 173.088,262.461 174.088,253.461 175.5,244.5C 175.057,232.382 175.057,220.715 175.5,209.5C 176.816,206.913 177.483,203.913 177.5,200.5C 180.485,156.651 179.652,112.984 175,69.5C 174.148,68.4293 173.315,67.4293 172.5,66.5C 172.33,65.1779 172.663,64.0113 173.5,63C 169.312,59.2271 169.645,55.8938 174.5,53C 173.197,50.2565 172.197,47.4232 171.5,44.5C 171.037,41.6697 170.371,39.003 169.5,36.5C 169.001,32.5101 168.501,28.5101 168,24.5C 165.712,20.8277 164.379,16.8277 164,12.5C 162.867,10.7888 161.367,10.2888 159.5,11C 157.137,11.5885 156.137,13.0885 156.5,15.5C 157.93,15.5792 159.264,15.2458 160.5,14.5C 160.833,16 161.167,17.5 161.5,19C 161.035,21.6033 160.368,24.1033 159.5,26.5C 157.396,26.7989 155.396,26.4656 153.5,25.5C 151.855,21.6746 151.188,17.6746 151.5,13.5C 149.982,10.9393 147.815,10.2726 145,11.5C 141.974,11.2869 139.474,10.2869 137.5,8.5C 143.167,8.5 148.833,8.5 154.5,8.5C 154.5,7.5 154.5,6.5 154.5,5.5C 157.557,4.39885 160.891,4.39885 164.5,5.5 Z"/></g>
<g><path style="opacity:0.907" fill="#7791aa" d="M 8.5,88.5 C 9.357,93.2799 10.0237,98.1133 10.5,103C 9.22338,139.164 9.22338,175.331 10.5,211.5C 12.0884,223.126 13.0884,234.793 13.5,246.5C 12.5,246.5 11.5,246.5 10.5,246.5C 11.1031,241.381 10.4364,236.715 8.5,232.5C 7.16996,184.402 7.16996,136.402 8.5,88.5 Z"/></g>
<g><path style="opacity:1" fill="#74a5da" d="M 172.5,66.5 C 173.315,67.4293 174.148,68.4293 175,69.5C 179.652,112.984 180.485,156.651 177.5,200.5C 177.483,203.913 176.816,206.913 175.5,209.5C 175.253,203.459 175.586,197.459 176.5,191.5C 175.916,185.499 175.25,179.499 174.5,173.5C 173.914,173.291 173.414,172.957 173,172.5C 172.667,160.167 172.333,147.833 172,135.5C 171.338,133.187 170.838,130.854 170.5,128.5C 167.753,128.187 165.086,128.52 162.5,129.5C 163.833,130.167 165.167,130.833 166.5,131.5C 164.389,132.848 162.555,132.515 161,130.5C 160.308,131.025 159.808,131.692 159.5,132.5C 160.744,134.133 160.244,135.133 158,135.5C 147.958,134.187 137.958,134.187 128,135.5C 125.133,133.165 121.966,132.832 118.5,134.5C 116.627,134.518 116.294,134.018 117.5,133C 115.866,132.506 114.199,132.34 112.5,132.5C 112.424,153.984 112.757,175.484 113.5,197C 112.797,202.143 112.297,207.309 112,212.5C 110.989,213.337 109.822,213.67 108.5,213.5C 108.427,216.881 109.427,219.881 111.5,222.5C 109.412,224.599 107.745,226.933 106.5,229.5C 106.286,227.856 106.62,226.356 107.5,225C 107,224.5 106.5,224 106,223.5C 103.859,207.678 102.525,191.678 102,175.5C 101.292,174.619 100.458,173.953 99.5,173.5C 99.5,166.833 99.5,160.167 99.5,153.5C 99.5,153.167 99.5,152.833 99.5,152.5C 99.6565,140.12 98.9899,127.787 97.5,115.5C 97.3142,113.42 96.3142,111.92 94.5,111C 93.5509,110.383 92.7175,110.549 92,111.5C 91.5012,115.486 91.3345,119.486 91.5,123.5C 91.5,133.167 91.5,142.833 91.5,152.5C 90.8826,152.611 90.3826,152.944 90,153.5C 90.4385,180.581 88.2718,207.415 83.5,234C 84.029,237.541 84.6957,241.041 85.5,244.5C 84.0428,259.166 83.0428,273.833 82.5,288.5C 80.2017,293.228 79.8683,298.228 81.5,303.5C 79.8778,313.647 79.5444,323.98 80.5,334.5C 80.2956,346.179 79.7956,357.846 79,369.5C 77.2087,371.513 75.8753,371.513 75,369.5C 73.187,370.609 72.3537,369.942 72.5,367.5C 73.5,367.5 74.5,367.5 75.5,367.5C 75.263,352.273 75.5963,337.106 76.5,322C 76.0696,320.566 75.2362,319.399 74,318.5C 73.6972,314.471 73.1972,310.471 72.5,306.5C 73.1667,304.833 73.8333,303.167 74.5,301.5C 73.7766,299.218 73.4433,296.884 73.5,294.5C 72.5,294.5 71.5,294.5 70.5,294.5C 69.7402,293.107 69.0735,291.607 68.5,290C 69.3944,281.19 70.0611,272.357 70.5,263.5C 69.5409,249.839 69.5409,236.173 70.5,222.5C 71.8734,222.657 73.2068,222.49 74.5,222C 74.1667,221.667 73.8333,221.333 73.5,221C 74.1667,218.333 74.8333,215.667 75.5,213C 74.9415,212.275 74.6082,211.442 74.5,210.5C 75.1123,205.476 75.7789,200.476 76.5,195.5C 76,194.5 75.5,193.5 75,192.5C 73.6015,191.949 72.2682,191.616 71,191.5C 70.6667,196.5 70.3333,201.5 70,206.5C 67.6985,207.867 65.1985,208.534 62.5,208.5C 62.5,196.5 62.5,184.5 62.5,172.5C 58.0899,172.861 53.7565,173.361 49.5,174C 51.0441,173.71 52.3774,173.044 53.5,172C 51.5,171.167 49.5,170.333 47.5,169.5C 50.8967,168.828 54.2301,167.995 57.5,167C 55.1629,165.659 52.6629,164.826 50,164.5C 43.5691,164.961 37.4025,166.294 31.5,168.5C 30.5033,161.866 30.17,155.2 30.5,148.5C 34.5,148.5 38.5,148.5 42.5,148.5C 42.5,150.167 42.5,151.833 42.5,153.5C 43.5,153.5 44.5,153.5 45.5,153.5C 44.4479,155.256 42.7812,155.923 40.5,155.5C 40.7135,157.144 40.3802,158.644 39.5,160C 46.4921,160.5 53.4921,160.666 60.5,160.5C 60.7711,158.179 60.1045,156.179 58.5,154.5C 60.0453,153.548 61.712,153.215 63.5,153.5C 64.5,153.5 65.5,153.5 66.5,153.5C 66.1253,150.093 67.1253,149.593 69.5,152C 68.6634,153.011 68.33,154.178 68.5,155.5C 70.1992,155.66 71.8659,155.494 73.5,155C 77.5633,149.419 79.5633,143.086 79.5,136C 78.6476,129.528 78.3143,123.028 78.5,116.5C 79.5,116.5 80.5,116.5 81.5,116.5C 82.235,108.61 82.9016,108.776 83.5,117C 84.6163,129.7 85.4496,142.533 86,155.5C 87.0505,151.696 87.8838,147.863 88.5,144C 87.8905,136.828 86.8905,129.661 85.5,122.5C 86.1638,118.524 86.4971,114.524 86.5,110.5C 89.2662,110.33 91.9328,109.664 94.5,108.5C 97.3013,108.464 99.1347,109.797 100,112.5C 100.973,108.984 102.473,108.651 104.5,111.5C 107.653,109.671 108.653,110.338 107.5,113.5C 108.247,113.736 109.08,114.07 110,114.5C 110.333,115.833 110.667,117.167 111,118.5C 112.171,117.107 113.671,116.273 115.5,116C 114.437,114.812 113.103,114.312 111.5,114.5C 111.5,113.167 111.5,111.833 111.5,110.5C 117.176,110.334 122.843,110.501 128.5,111C 130.35,113.033 131.016,113.033 130.5,111C 143.162,110.5 155.829,110.333 168.5,110.5C 168.771,104.397 168.104,98.3972 166.5,92.5C 166.667,91.1667 166.833,89.8333 167,88.5C 172.647,82.1753 174.48,74.8419 172.5,66.5 Z"/></g>
<g><path style="opacity:0.076" fill="#2e3c48" d="M 96.5,153.5 C 97.5,153.5 98.5,153.5 99.5,153.5C 99.5,160.167 99.5,166.833 99.5,173.5C 99.5,182.167 99.5,190.833 99.5,199.5C 99.5,200.167 99.5,200.833 99.5,201.5C 98.6687,186.672 98.1687,171.672 98,156.5C 97.4867,155.473 96.9867,154.473 96.5,153.5 Z"/></g>
<g><path style="opacity:0.498" fill="#576672" d="M 95.5,123.5 C 96.8333,133.167 98.1667,142.833 99.5,152.5C 99.5,152.833 99.5,153.167 99.5,153.5C 98.5,153.5 97.5,153.5 96.5,153.5C 95.5602,143.432 95.2269,133.432 95.5,123.5 Z"/></g>
<g><path style="opacity:0.333" fill="#435565" d="M 91.5,123.5 C 92.1667,123.5 92.8333,123.5 93.5,123.5C 93.4592,149.568 93.4592,175.402 93.5,201C 93.664,203.544 92.9973,205.71 91.5,207.5C 90.8333,207.5 90.1667,207.5 89.5,207.5C 91.4665,189.402 92.1331,171.069 91.5,152.5C 91.5,142.833 91.5,133.167 91.5,123.5 Z"/></g>
<g><path style="opacity:0.912" fill="#a3bddd" d="M 99.5,152.5 C 98.1667,142.833 96.8333,133.167 95.5,123.5C 94.8333,123.5 94.1667,123.5 93.5,123.5C 92.8333,123.5 92.1667,123.5 91.5,123.5C 91.3345,119.486 91.5012,115.486 92,111.5C 92.7175,110.549 93.5509,110.383 94.5,111C 96.3142,111.92 97.3142,113.42 97.5,115.5C 98.9899,127.787 99.6565,140.12 99.5,152.5 Z"/></g>
<g><path style="opacity:1" fill="#4c82b4" d="M 131.5,115.5 C 139.86,115.169 148.193,115.502 156.5,116.5C 155.332,118.217 153.665,118.884 151.5,118.5C 151.5,120.167 151.5,121.833 151.5,123.5C 146.371,124.28 141.205,124.947 136,125.5C 133.167,125.333 130.333,125.167 127.5,125C 127.167,124.667 126.833,124.333 126.5,124C 130.754,122.895 132.42,120.061 131.5,115.5 Z"/></g>
<g><path style="opacity:0.122" fill="#384656" d="M 180.5,173.5 C 181.5,173.5 182.5,173.5 183.5,173.5C 183.217,174.289 182.717,174.956 182,175.5C 181.176,190.741 181.343,205.908 182.5,221C 181.872,223.939 181.205,226.772 180.5,229.5C 180.979,225.566 180.312,221.899 178.5,218.5C 180.462,203.674 181.128,188.674 180.5,173.5 Z"/></g>
<g><path style="opacity:0.584" fill="#6c7c8e" d="M 99.5,199.5 C 100.75,199.577 101.583,200.244 102,201.5C 102.5,211.494 102.666,221.494 102.5,231.5C 101.833,221.833 101.167,212.167 100.5,202.5C 99.8333,202.5 99.5,202.167 99.5,201.5C 99.5,200.833 99.5,200.167 99.5,199.5 Z"/></g>
<g><path style="opacity:0.878" fill="#bdd5ef" d="M 8.5,212.5 C 9.81422,214.915 10.4809,217.748 10.5,221C 10.1667,223.833 9.83333,226.667 9.5,229.5C 8.50457,223.872 8.17124,218.206 8.5,212.5 Z"/></g>
<g><path style="opacity:1" fill="#a9c1d9" d="M 89.5,220.5 C 89.5,230.833 89.5,241.167 89.5,251.5C 88.5,251.5 87.5,251.5 86.5,251.5C 86.1682,241.81 86.5016,232.144 87.5,222.5C 88.1818,221.757 88.8485,221.091 89.5,220.5 Z"/></g>
<g><path style="opacity:0.067" fill="#172734" d="M 180.5,229.5 C 179.864,236.933 179.198,244.266 178.5,251.5C 177.87,243.757 178.537,236.424 180.5,229.5 Z"/></g>
<g><path style="opacity:0.071" fill="#252a34" d="M 8.5,232.5 C 10.4364,236.715 11.1031,241.381 10.5,246.5C 9.78377,241.936 9.1171,237.269 8.5,232.5 Z"/></g>
<g><path style="opacity:1" fill="#86aad2" d="M 91.5,152.5 C 92.1331,171.069 91.4665,189.402 89.5,207.5C 89.5,211.833 89.5,216.167 89.5,220.5C 88.8485,221.091 88.1818,221.757 87.5,222.5C 86.5016,232.144 86.1682,241.81 86.5,251.5C 86.5,264.833 86.5,278.167 86.5,291.5C 84.5437,297.412 83.8771,303.745 84.5,310.5C 83.7503,332.02 82.7503,353.686 81.5,375.5C 82.521,378.896 82.1876,381.896 80.5,384.5C 79.2921,385.234 77.9587,385.567 76.5,385.5C 76.811,384.522 77.4777,383.855 78.5,383.5C 79.156,378.121 79.9893,372.787 81,367.5C 81.424,341.163 81.924,314.83 82.5,288.5C 83.0428,273.833 84.0428,259.166 85.5,244.5C 84.6957,241.041 84.029,237.541 83.5,234C 88.2718,207.415 90.4385,180.581 90,153.5C 90.3826,152.944 90.8826,152.611 91.5,152.5 Z"/></g>
<g><path style="opacity:0.2" fill="#3f4a57" d="M 10.5,246.5 C 11.5,246.5 12.5,246.5 13.5,246.5C 13.5,249.833 13.5,253.167 13.5,256.5C 12.9804,264.369 13.6471,272.036 15.5,279.5C 15.5,287.833 15.5,296.167 15.5,304.5C 14.6706,296.343 14.1706,288.01 14,279.5C 12.8777,276.103 12.0444,272.603 11.5,269C 12.6433,262.582 12.81,256.082 12,249.5C 11.4867,248.473 10.9867,247.473 10.5,246.5 Z"/></g>
<g><path style="opacity:0.278" fill="#252e35" d="M 100.5,202.5 C 101.167,212.167 101.833,221.833 102.5,231.5C 104.488,251.139 105.155,271.139 104.5,291.5C 104.842,292.338 105.508,292.672 106.5,292.5C 106.5,316.833 106.5,341.167 106.5,365.5C 105.683,363.031 105.183,360.365 105,357.5C 104.561,316.67 103.727,276.003 102.5,235.5C 99.9763,237.19 97.9763,239.357 96.5,242C 94.7444,242.202 93.0777,242.702 91.5,243.5C 90.9204,246.311 90.2537,248.977 89.5,251.5C 89.5,241.167 89.5,230.833 89.5,220.5C 89.5,216.167 89.5,211.833 89.5,207.5C 90.1667,207.5 90.8333,207.5 91.5,207.5C 91.0315,215.378 90.8648,223.378 91,231.5C 92.8783,233.698 95.0449,233.864 97.5,232C 98.717,230.352 99.5503,228.519 100,226.5C 100.5,218.507 100.666,210.507 100.5,202.5 Z"/></g>
<g><path style="opacity:0.102" fill="#37414b" d="M 178.5,251.5 C 178.217,252.289 177.717,252.956 177,253.5C 176.191,279.342 175.024,305.009 173.5,330.5C 173.5,317.5 173.5,304.5 173.5,291.5C 175.459,285.25 176.126,278.584 175.5,271.5C 175.5,264.833 175.5,258.167 175.5,251.5C 176.5,251.5 177.5,251.5 178.5,251.5 Z"/></g>
<g><path style="opacity:1" fill="#8badce" d="M 107.5,255.5 C 108.386,271.334 109.053,287.334 109.5,303.5C 109.635,330.17 109.968,356.836 110.5,383.5C 110.167,383.5 109.833,383.5 109.5,383.5C 109.5,377.5 109.5,371.5 109.5,365.5C 107.93,341.079 106.93,316.745 106.5,292.5C 105.508,292.672 104.842,292.338 104.5,291.5C 105.5,291.5 106.5,291.5 107.5,291.5C 107.5,279.5 107.5,267.5 107.5,255.5 Z"/></g>
<g><path style="opacity:0.945" fill="#bed9f0" d="M 175.5,271.5 C 176.126,278.584 175.459,285.25 173.5,291.5C 172.874,284.416 173.541,277.75 175.5,271.5 Z"/></g>
<g><path style="opacity:1" fill="#91b4d8" d="M 13.5,256.5 C 14.793,257.842 15.6264,259.509 16,261.5C 18.1266,273.908 19.6266,286.241 20.5,298.5C 20.5,304.5 20.5,310.5 20.5,316.5C 19.6728,311.015 19.1728,305.348 19,299.5C 18.7811,300.938 18.2811,302.271 17.5,303.5C 16.8333,295.343 16.1666,287.343 15.5,279.5C 13.6471,272.036 12.9804,264.369 13.5,256.5 Z"/></g>
<g><path style="opacity:0.898" fill="#a1bdd9" d="M 99.5,173.5 C 100.458,173.953 101.292,174.619 102,175.5C 102.525,191.678 103.859,207.678 106,223.5C 106.5,224 107,224.5 107.5,225C 106.62,226.356 106.286,227.856 106.5,229.5C 104.99,238.143 105.323,246.809 107.5,255.5C 107.5,267.5 107.5,279.5 107.5,291.5C 106.5,291.5 105.5,291.5 104.5,291.5C 105.155,271.139 104.488,251.139 102.5,231.5C 102.666,221.494 102.5,211.494 102,201.5C 101.583,200.244 100.75,199.577 99.5,199.5C 99.5,190.833 99.5,182.167 99.5,173.5 Z"/></g>
<g><path style="opacity:0.43" fill="#5d6d7f" d="M 86.5,251.5 C 87.5,251.5 88.5,251.5 89.5,251.5C 88.7659,252.708 88.4326,254.041 88.5,255.5C 87.5028,275.993 87.1695,296.66 87.5,317.5C 86.5,317.5 85.5,317.5 84.5,317.5C 84.8782,315.079 85.5448,312.746 86.5,310.5C 86.5,304.167 86.5,297.833 86.5,291.5C 86.5,278.167 86.5,264.833 86.5,251.5 Z"/></g>
<g><path style="opacity:0.8" fill="#c0d7ee" d="M 86.5,291.5 C 86.5,297.833 86.5,304.167 86.5,310.5C 85.8333,310.5 85.1667,310.5 84.5,310.5C 83.8771,303.745 84.5437,297.412 86.5,291.5 Z"/></g>
<g><path style="opacity:0.835" fill="#a4bfde" d="M 172.5,293.5 C 172.5,305.833 172.5,318.167 172.5,330.5C 171.833,330.5 171.167,330.5 170.5,330.5C 170.085,317.953 170.752,305.62 172.5,293.5 Z"/></g>
<g><path style="opacity:0.247" fill="#202930" d="M 88.5,255.5 C 89.6314,275.802 89.7981,296.136 89,316.5C 88.5814,317.672 87.9147,318.672 87,319.5C 86.3333,342.167 86.3333,364.833 87,387.5C 88.3631,388.893 89.1964,390.559 89.5,392.5C 87.3522,396.145 85.3522,399.811 83.5,403.5C 73.541,403.438 63.3744,403.771 53,404.5C 47.6295,404.295 42.4629,403.628 37.5,402.5C 52.5,402.5 67.5,402.5 82.5,402.5C 82.5,401.5 82.5,400.5 82.5,399.5C 84.1781,397.218 85.5114,394.551 86.5,391.5C 86.2528,390.287 85.5862,389.62 84.5,389.5C 84.5,365.5 84.5,341.5 84.5,317.5C 85.5,317.5 86.5,317.5 87.5,317.5C 87.1695,296.66 87.5028,275.993 88.5,255.5 Z"/></g>
<g><path style="opacity:0.173" fill="#465666" d="M 15.5,305.5 C 16.5,305.5 17.5,305.5 18.5,305.5C 18.5,313.833 18.5,322.167 18.5,330.5C 18.5,335.5 18.5,340.5 18.5,345.5C 18.8308,347.322 19.4975,348.989 20.5,350.5C 20.1667,350.5 19.8333,350.5 19.5,350.5C 18.8826,350.389 18.3826,350.056 18,349.5C 17.6667,335.5 17.3333,321.5 17,307.5C 16.2828,306.956 15.7828,306.289 15.5,305.5 Z"/></g>
<g><path style="opacity:1" fill="#8ca7c2" d="M 15.5,279.5 C 16.1666,287.343 16.8333,295.343 17.5,303.5C 18.2811,302.271 18.7811,300.938 19,299.5C 19.1728,305.348 19.6728,311.015 20.5,316.5C 21.5005,336.17 22.5005,355.837 23.5,375.5C 21.8813,378.548 20.8813,381.881 20.5,385.5C 20.5,373.833 20.5,362.167 20.5,350.5C 19.4975,348.989 18.8308,347.322 18.5,345.5C 19.8086,343.429 20.4752,340.929 20.5,338C 20.4752,335.071 19.8086,332.571 18.5,330.5C 18.5,322.167 18.5,313.833 18.5,305.5C 17.5,305.5 16.5,305.5 15.5,305.5C 15.5,305.167 15.5,304.833 15.5,304.5C 15.5,296.167 15.5,287.833 15.5,279.5 Z"/></g>
<g><path style="opacity:0.137" fill="#364d62" d="M 170.5,330.5 C 171.167,330.5 171.833,330.5 172.5,330.5C 172.833,330.5 173.167,330.5 173.5,330.5C 171.175,348.673 170.842,367.007 172.5,385.5C 170.529,376.895 169.862,367.895 170.5,358.5C 170.5,349.167 170.5,339.833 170.5,330.5 Z"/></g>
<g><path style="opacity:0.914" fill="#c2d7ed" d="M 18.5,330.5 C 19.8086,332.571 20.4752,335.071 20.5,338C 20.4752,340.929 19.8086,343.429 18.5,345.5C 18.5,340.5 18.5,335.5 18.5,330.5 Z"/></g>
<g><path style="opacity:0.485" fill="#657583" d="M 106.5,292.5 C 106.93,316.745 107.93,341.079 109.5,365.5C 108.508,365.328 107.842,365.662 107.5,366.5C 106.833,366.5 106.5,366.167 106.5,365.5C 106.5,341.167 106.5,316.833 106.5,292.5 Z"/></g>
<g><path style="opacity:1" fill="#75a4d7" d="M 70.5,294.5 C 71.5,294.5 72.5,294.5 73.5,294.5C 73.4433,296.884 73.7766,299.218 74.5,301.5C 73.8333,303.167 73.1667,304.833 72.5,306.5C 73.1972,310.471 73.6972,314.471 74,318.5C 75.2362,319.399 76.0696,320.566 76.5,322C 75.5963,337.106 75.263,352.273 75.5,367.5C 74.5,367.5 73.5,367.5 72.5,367.5C 72.3537,369.942 73.187,370.609 75,369.5C 75.8753,371.513 77.2087,371.513 79,369.5C 79.7956,357.846 80.2956,346.179 80.5,334.5C 79.5444,323.98 79.8778,313.647 81.5,303.5C 79.8683,298.228 80.2017,293.228 82.5,288.5C 81.924,314.83 81.424,341.163 81,367.5C 79.9893,372.787 79.156,378.121 78.5,383.5C 77.4777,383.855 76.811,384.522 76.5,385.5C 74.8967,385.312 73.5634,385.812 72.5,387C 68.1667,387.167 63.8333,387.333 59.5,387.5C 47.6039,385.981 35.6039,385.314 23.5,385.5C 23.5,382.167 23.5,378.833 23.5,375.5C 22.5005,355.837 21.5005,336.17 20.5,316.5C 20.5,310.5 20.5,304.5 20.5,298.5C 23.2608,302.658 23.9275,307.158 22.5,312C 24.0996,313.608 25.433,315.441 26.5,317.5C 27.2811,316.271 27.7811,314.938 28,313.5C 28.231,317.584 28.8976,321.584 30,325.5C 31.147,323.269 32.147,320.935 33,318.5C 33.6667,324.5 33.6667,330.5 33,336.5C 32.6667,336.167 32.3333,335.833 32,335.5C 31.8333,336.833 31.6667,338.167 31.5,339.5C 34.9427,348.595 35.9427,357.928 34.5,367.5C 33.8333,368.5 33.1667,369.5 32.5,370.5C 32.8914,369.109 32.0581,368.109 30,367.5C 29.7826,362.447 29.2826,357.447 28.5,352.5C 29.7515,351.369 30.7515,350.036 31.5,348.5C 30.8333,346.167 30.1667,343.833 29.5,341.5C 31.8071,335.789 30.1404,332.123 24.5,330.5C 24.3334,343.171 24.5001,355.838 25,368.5C 25.6859,372.716 26.8525,376.716 28.5,380.5C 34.8333,380.5 41.1667,380.5 47.5,380.5C 47.2865,378.856 47.6198,377.356 48.5,376C 52.5013,375.166 56.5013,374.333 60.5,373.5C 64.5285,374.938 68.1952,374.271 71.5,371.5C 63.5794,370.353 63.5794,369.52 71.5,369C 69.5798,363.803 68.9132,358.303 69.5,352.5C 67.8762,352.64 66.7096,351.973 66,350.5C 65.3109,351.357 64.4776,352.023 63.5,352.5C 62.1667,346.5 62.1667,340.5 63.5,334.5C 65.9958,337.255 66.9958,336.588 66.5,332.5C 66.9958,328.412 65.9958,327.745 63.5,330.5C 62.5091,326.555 62.1758,322.555 62.5,318.5C 63.8333,318.5 65.1667,318.5 66.5,318.5C 66.3505,319.552 66.5172,320.552 67,321.5C 68.3507,315.928 68.8507,310.262 68.5,304.5C 66.5,304.5 64.5,304.5 62.5,304.5C 62.5,277.167 62.5,249.833 62.5,222.5C 63.8333,222.5 65.1667,222.5 66.5,222.5C 66.5,246.5 66.5,270.5 66.5,294.5C 67.8333,294.5 69.1667,294.5 70.5,294.5 Z"/></g>
<g><path style="opacity:1" fill="#77a5d8" d="M 172.5,271.5 C 172.5,278.833 172.5,286.167 172.5,293.5C 170.752,305.62 170.085,317.953 170.5,330.5C 170.5,339.833 170.5,349.167 170.5,358.5C 169.821,367.235 169.154,376.068 168.5,385C 157.193,386.163 145.86,386.997 134.5,387.5C 128.833,387.167 123.167,386.833 117.5,386.5C 114.901,385.865 112.568,384.865 110.5,383.5C 109.968,356.836 109.635,330.17 109.5,303.5C 110.151,312.226 111.151,321.059 112.5,330C 112.243,336.741 112.243,343.575 112.5,350.5C 113.833,350.5 115.167,350.5 116.5,350.5C 116.5,356.5 116.5,362.5 116.5,368.5C 124.829,369.12 133.496,369.12 142.5,368.5C 142.5,362.5 142.5,356.5 142.5,350.5C 143.833,350.5 145.167,350.5 146.5,350.5C 146.334,355.844 146.501,361.177 147,366.5C 148,367.833 149,367.833 150,366.5C 150.088,360.39 150.755,354.39 152,348.5C 153.806,351.684 155.806,352.017 158,349.5C 159.8,334.99 160.966,319.657 161.5,303.5C 162.833,303.5 164.167,303.5 165.5,303.5C 165.759,295.247 164.759,287.247 162.5,279.5C 164.762,271.839 166.095,263.839 166.5,255.5C 167.932,258.662 168.599,261.995 168.5,265.5C 164.383,274.837 164.55,284.17 169,293.5C 169.601,291.863 170.101,290.197 170.5,288.5C 169.431,283.2 169.264,277.866 170,272.5C 170.671,271.748 171.504,271.414 172.5,271.5 Z"/></g>
<g><path style="opacity:0.075" fill="#1e2933" d="M 19.5,350.5 C 19.8333,350.5 20.1667,350.5 20.5,350.5C 20.5,362.167 20.5,373.833 20.5,385.5C 19.8333,385.5 19.1667,385.5 18.5,385.5C 19.478,373.914 19.8113,362.247 19.5,350.5 Z"/></g>
<g><path style="opacity:0.259" fill="#303942" d="M 109.5,365.5 C 109.5,371.5 109.5,377.5 109.5,383.5C 109.5,384.833 108.833,385.5 107.5,385.5C 105.977,387.896 104.977,390.562 104.5,393.5C 103.861,392.903 103.528,392.07 103.5,391C 106.973,383.297 108.306,375.131 107.5,366.5C 107.842,365.662 108.508,365.328 109.5,365.5 Z"/></g>
<g><path style="opacity:0.553" fill="#a1b5cb" d="M 84.5,310.5 C 85.1667,310.5 85.8333,310.5 86.5,310.5C 85.5448,312.746 84.8782,315.079 84.5,317.5C 84.5,341.5 84.5,365.5 84.5,389.5C 83.8354,387.631 83.1687,385.631 82.5,383.5C 81.8076,384.025 81.3076,384.692 81,385.5C 80.6012,385.272 80.4346,384.938 80.5,384.5C 82.1876,381.896 82.521,378.896 81.5,375.5C 82.7503,353.686 83.7503,332.02 84.5,310.5 Z"/></g>
<g><path style="opacity:0.204" fill="#5a616c" d="M 18.5,385.5 C 18.0961,390.399 18.7627,395.066 20.5,399.5C 19.5041,399.586 18.6708,399.252 18,398.5C 17.1864,393.98 17.353,389.646 18.5,385.5 Z"/></g>
<g><path style="opacity:1" fill="#b3d3f4" d="M 170.5,358.5 C 169.862,367.895 170.529,376.895 172.5,385.5C 172.5,389.833 172.5,394.167 172.5,398.5C 169.615,398.194 166.948,398.527 164.5,399.5C 147.404,401.464 130.071,402.131 112.5,401.5C 110.563,400.046 108.897,398.379 107.5,396.5C 107.5,392.833 107.5,389.167 107.5,385.5C 108.833,385.5 109.5,384.833 109.5,383.5C 109.833,383.5 110.167,383.5 110.5,383.5C 112.568,384.865 114.901,385.865 117.5,386.5C 123.167,386.833 128.833,387.167 134.5,387.5C 145.86,386.997 157.193,386.163 168.5,385C 169.154,376.068 169.821,367.235 170.5,358.5 Z"/></g>
<g><path style="opacity:1" fill="#b3d0ef" d="M 23.5,375.5 C 23.5,378.833 23.5,382.167 23.5,385.5C 35.6039,385.314 47.6039,385.981 59.5,387.5C 63.8333,387.333 68.1667,387.167 72.5,387C 73.5634,385.812 74.8967,385.312 76.5,385.5C 77.9587,385.567 79.2921,385.234 80.5,384.5C 80.4346,384.938 80.6012,385.272 81,385.5C 81.3076,384.692 81.8076,384.025 82.5,383.5C 83.1687,385.631 83.8354,387.631 84.5,389.5C 85.5862,389.62 86.2528,390.287 86.5,391.5C 85.5114,394.551 84.1781,397.218 82.5,399.5C 74.3985,400.803 66.0652,401.47 57.5,401.5C 48.3782,401.414 39.3782,400.747 30.5,399.5C 27.0641,400.782 23.7307,400.782 20.5,399.5C 18.7627,395.066 18.0961,390.399 18.5,385.5C 19.1667,385.5 19.8333,385.5 20.5,385.5C 20.8813,381.881 21.8813,378.548 23.5,375.5 Z"/></g>
<g><path style="opacity:0.612" fill="#87959f" d="M 107.5,385.5 C 107.5,389.167 107.5,392.833 107.5,396.5C 106.778,395.449 105.778,394.782 104.5,394.5C 104.5,394.167 104.5,393.833 104.5,393.5C 104.977,390.562 105.977,387.896 107.5,385.5 Z"/></g>
<g><path style="opacity:0.353" fill="#5e6775" d="M 172.5,385.5 C 174.34,389.554 174.84,393.887 174,398.5C 171.519,400.314 168.685,400.98 165.5,400.5C 165.5,399.833 165.167,399.5 164.5,399.5C 166.948,398.527 169.615,398.194 172.5,398.5C 172.5,394.167 172.5,389.833 172.5,385.5 Z"/></g>
<g><path style="opacity:0.305" fill="#55626d" d="M 30.5,399.5 C 39.3782,400.747 48.3782,401.414 57.5,401.5C 66.0652,401.47 74.3985,400.803 82.5,399.5C 82.5,400.5 82.5,401.5 82.5,402.5C 67.5,402.5 52.5,402.5 37.5,402.5C 35.4727,402.662 33.4727,402.495 31.5,402C 30.7476,401.329 30.4142,400.496 30.5,399.5 Z"/></g>
<g><path style="opacity:0.347" fill="#535f69" d="M 164.5,399.5 C 165.167,399.5 165.5,399.833 165.5,400.5C 165.389,401.117 165.056,401.617 164.5,402C 162.527,402.495 160.527,402.662 158.5,402.5C 142.991,402.83 127.658,402.496 112.5,401.5C 130.071,402.131 147.404,401.464 164.5,399.5 Z"/></g>
<g><path style="opacity:0.085" fill="#1b1e22" d="M 104.5,394.5 C 105.778,394.782 106.778,395.449 107.5,396.5C 108.897,398.379 110.563,400.046 112.5,401.5C 127.658,402.496 142.991,402.83 158.5,402.5C 156.321,403.926 153.821,404.592 151,404.5C 137.687,404.445 124.187,404.112 110.5,403.5C 110.5,402.5 110.5,401.5 110.5,400.5C 106.749,400.376 104.749,398.376 104.5,394.5 Z"/></g>
</svg>
