<?xml version="1.0" encoding="UTF-8"?>
<!DOCTYPE svg PUBLIC "-//W3C//DTD SVG 1.1//EN" "http://www.w3.org/Graphics/SVG/1.1/DTD/svg11.dtd">
<svg xmlns="http://www.w3.org/2000/svg" version="1.1" width="312px" height="322px" style="shape-rendering:geometricPrecision; text-rendering:geometricPrecision; image-rendering:optimizeQuality; fill-rule:evenodd; clip-rule:evenodd" xmlns:xlink="http://www.w3.org/1999/xlink">
<g><path style="opacity:0.988" fill="#000000" d="M 77.5,-0.5 C 79.5,-0.5 81.5,-0.5 83.5,-0.5C 84.1667,0.833333 84.8333,0.833333 85.5,-0.5C 89.1667,-0.5 92.8333,-0.5 96.5,-0.5C 97.1667,0.166667 97.8333,0.833333 98.5,1.5C 96.5354,1.94835 96.2021,2.94835 97.5,4.5C 98.2975,4.04311 98.6309,3.37644 98.5,2.5C 99.1174,2.61071 99.6174,2.94404 100,3.5C 100.498,6.81677 100.665,10.1501 100.5,13.5C 101.822,13.33 102.989,13.6634 104,14.5C 104.187,21.4482 107.52,26.1149 114,28.5C 114.483,29.448 114.649,30.448 114.5,31.5C 117.571,33.8972 120.904,35.8972 124.5,37.5C 128.544,38.0995 132.211,39.4328 135.5,41.5C 135.759,45.0681 137.759,46.4015 141.5,45.5C 141.5,46.5 141.5,47.5 141.5,48.5C 147.019,48.9963 152.685,48.9963 158.5,48.5C 158.5,47.5 158.5,46.5 158.5,45.5C 161.167,45.5 163.833,45.5 166.5,45.5C 166.5,44.1667 166.5,42.8333 166.5,41.5C 170.256,41.4667 173.589,40.4667 176.5,38.5C 177.568,39.4345 178.901,39.7678 180.5,39.5C 180.5,38.1667 180.5,36.8333 180.5,35.5C 182.104,34.713 182.771,33.3797 182.5,31.5C 183.822,31.67 184.989,31.3366 186,30.5C 186.36,27.0031 187.86,24.1697 190.5,22C 191.448,21.5172 192.448,21.3505 193.5,21.5C 193.337,19.1432 193.503,16.8098 194,14.5C 195.011,13.6634 196.178,13.33 197.5,13.5C 197.639,10.2426 198.306,7.07595 199.5,4C 199.241,2.21343 198.575,0.713431 197.5,-0.5C 202.5,-0.5 207.5,-0.5 212.5,-0.5C 215.287,0.476669 218.287,0.810002 221.5,0.5C 221.281,1.67504 221.614,2.67504 222.5,3.5C 230.834,8.09575 239.501,12.0958 248.5,15.5C 250.606,16.897 252.273,18.7304 253.5,21C 254.448,21.4828 255.448,21.6495 256.5,21.5C 256.533,25.256 257.533,28.5893 259.5,31.5C 260.5,31.5 261.5,31.5 262.5,31.5C 262.599,34.6049 263.599,37.2716 265.5,39.5C 266.484,42.4281 266.817,45.4281 266.5,48.5C 267.822,48.33 268.989,48.6634 270,49.5C 270.333,51.8333 270.667,54.1667 271,56.5C 271.667,57.8333 272.667,58.8333 274,59.5C 275.041,67.5146 276.207,75.5146 277.5,83.5C 278.167,83.8333 278.833,84.1667 279.5,84.5C 280.167,90.8333 280.833,97.1667 281.5,103.5C 282.167,103.833 282.833,104.167 283.5,104.5C 284.492,108.783 284.826,113.116 284.5,117.5C 286.124,117.36 287.29,118.027 288,119.5C 289.703,136.122 290.703,152.788 291,169.5C 292.011,170.337 293.178,170.67 294.5,170.5C 294.5,174.833 294.5,179.167 294.5,183.5C 297.243,183.077 298.576,184.244 298.5,187C 298.295,204.799 298.295,222.633 298.5,240.5C 299.5,240.5 300.5,240.5 301.5,240.5C 301.646,266.896 301.646,293.229 301.5,319.5C 286.485,319.833 271.485,319.499 256.5,318.5C 255.73,305.27 255.73,291.77 256.5,278C 256.473,275.637 255.306,274.137 253,273.5C 252.5,258.837 252.333,244.17 252.5,229.5C 251.178,229.67 250.011,229.337 249,228.5C 248.5,222.175 248.334,215.842 248.5,209.5C 247.5,209.5 246.5,209.5 245.5,209.5C 244.755,197.71 243.755,186.044 242.5,174.5C 240.876,174.64 239.71,173.973 239,172.5C 238.5,166.175 238.334,159.842 238.5,153.5C 237.5,153.5 236.5,153.5 235.5,153.5C 235.5,155.833 235.5,158.167 235.5,160.5C 234.178,160.33 233.011,160.663 232,161.5C 231.833,206.17 231.333,250.837 230.5,295.5C 229.77,297.341 229.103,299.175 228.5,301C 232.251,311.249 228.751,315.416 218,313.5C 192.481,313.491 166.981,313.491 141.5,313.5C 141.715,315.179 141.048,316.179 139.5,316.5C 141.078,314.682 140.578,313.682 138,313.5C 134.993,313.999 134.826,314.999 137.5,316.5C 116.912,316.206 96.2453,316.539 75.5,317.5C 73.5,315.833 71.5,314.167 69.5,312.5C 68.6143,311.675 68.281,310.675 68.5,309.5C 67.1779,309.67 66.0113,309.337 65,308.5C 64.8332,278.828 64.3332,249.161 63.5,219.5C 62.914,219.291 62.414,218.957 62,218.5C 61.3311,197.849 60.9978,177.516 61,157.5C 60.6667,157.167 60.3333,156.833 60,156.5C 59.6852,159.372 59.1852,162.205 58.5,165C 57.9915,166.169 57.1581,167.002 56,167.5C 55.6667,171.5 55.3333,175.5 55,179.5C 54,180.167 53,180.833 52,181.5C 51.3615,184.536 51.5282,187.536 52.5,190.5C 51.8367,193.806 51.3367,197.139 51,200.5C 50.3333,201.167 49.6667,201.833 49,202.5C 47.1797,215.779 46.013,229.113 45.5,242.5C 44.1667,246.833 44.1667,251.167 45.5,255.5C 44.713,257.104 43.3797,257.771 41.5,257.5C 41.6666,277.169 41.5,296.836 41,316.5C 37.2067,317.331 33.3734,318.164 29.5,319C 19.5056,319.5 9.50555,319.666 -0.5,319.5C -0.5,275.5 -0.5,231.5 -0.5,187.5C 0.5,187.5 1.5,187.5 2.5,187.5C 2.33348,176.162 2.50014,164.828 3,153.5C 4.01127,152.663 5.17793,152.33 6.5,152.5C 6.12178,146.753 6.12178,141.086 6.5,135.5C 7.5,135.5 8.5,135.5 9.5,135.5C 9.33379,129.158 9.50046,122.825 10,116.5C 11.0113,115.663 12.1779,115.33 13.5,115.5C 12.287,106.871 13.287,98.5381 16.5,90.5C 15.0701,85.7204 16.0701,81.5537 19.5,78C 18.5713,74.5043 18.738,71.0043 20,67.5C 21.0113,66.6634 22.1779,66.33 23.5,66.5C 23.3354,63.4816 23.502,60.4816 24,57.5C 25.0113,56.6634 26.1779,56.33 27.5,56.5C 28.4961,51.2717 29.3295,45.9384 30,40.5C 30.7096,39.0267 31.8762,38.3601 33.5,38.5C 32.6971,34.8307 33.8638,32.164 37,30.5C 37.4935,28.8659 37.6602,27.1992 37.5,25.5C 40.5,25.8333 41.8333,24.5 41.5,21.5C 42.5,21.5 43.5,21.5 44.5,21.5C 45.382,18.8444 46.7153,16.3444 48.5,14C 52.0468,13.6931 55.3801,12.8597 58.5,11.5C 58.33,10.1779 58.6634,9.01127 59.5,8C 63.8206,7.50098 68.1539,7.33432 72.5,7.5C 72.1667,4.5 73.5,3.16667 76.5,3.5C 76.4326,2.04125 76.7659,0.707917 77.5,-0.5 Z"/></g>
<g><path style="opacity:0.522" fill="#0c0e0d" d="M 98.5,1.5 C 98.5,1.83333 98.5,2.16667 98.5,2.5C 98.6309,3.37644 98.2975,4.04311 97.5,4.5C 96.2021,2.94835 96.5354,1.94835 98.5,1.5 Z"/></g>
<g><path style="opacity:0.398" fill="#000108" d="M 180.5,35.5 C 180.5,36.8333 180.5,38.1667 180.5,39.5C 178.901,39.7678 177.568,39.4345 176.5,38.5C 178.43,38.2294 179.764,37.2294 180.5,35.5 Z"/></g>
<g><path style="opacity:0.998" fill="#06090d" d="M 45.5,242.5 C 45.9658,247.029 45.9658,251.363 45.5,255.5C 44.1667,251.167 44.1667,246.833 45.5,242.5 Z"/></g>
<g><path style="opacity:0.957" fill="#090907" d="M 139.5,316.5 C 138.833,316.5 138.167,316.5 137.5,316.5C 134.826,314.999 134.993,313.999 138,313.5C 140.578,313.682 141.078,314.682 139.5,316.5 Z"/></g>
</svg>
