<?xml version="1.0" encoding="UTF-8"?>
<!DOCTYPE svg PUBLIC "-//W3C//DTD SVG 1.1//EN" "http://www.w3.org/Graphics/SVG/1.1/DTD/svg11.dtd">
<svg xmlns="http://www.w3.org/2000/svg" version="1.1" width="286px" height="373px" style="shape-rendering:geometricPrecision; text-rendering:geometricPrecision; image-rendering:optimizeQuality; fill-rule:evenodd; clip-rule:evenodd" xmlns:xlink="http://www.w3.org/1999/xlink">
<g><path style="opacity:0.999" fill="#000000" d="M 62.5,-0.5 C 67.5,-0.5 72.5,-0.5 77.5,-0.5C 77.5,1.16667 77.5,2.83333 77.5,4.5C 79.7354,4.20528 81.7354,4.53862 83.5,5.5C 84.1667,7.5 84.8333,9.5 85.5,11.5C 96.8333,11.5 108.167,11.5 119.5,11.5C 119.611,12.1174 119.944,12.6174 120.5,13C 136.833,13.6667 153.167,13.6667 169.5,13C 170.044,12.2828 170.711,11.7828 171.5,11.5C 179.243,12.1299 186.576,11.4633 193.5,9.5C 195.607,8.53178 197.941,8.19845 200.5,8.5C 202.048,8.17876 202.715,7.17876 202.5,5.5C 204.5,5.5 206.5,5.5 208.5,5.5C 208.5,4.5 208.5,3.5 208.5,2.5C 210.5,2.5 212.5,2.5 214.5,2.5C 214.5,1.5 214.5,0.5 214.5,-0.5C 217.833,-0.5 221.167,-0.5 224.5,-0.5C 224.493,2.03785 224.159,4.53785 223.5,7C 223.858,9.03241 224.692,10.8657 226,12.5C 226.499,18.1569 226.666,23.8236 226.5,29.5C 227.5,29.5 228.5,29.5 229.5,29.5C 229.5,30.8333 229.5,32.1667 229.5,33.5C 228.897,38.6186 229.564,43.2853 231.5,47.5C 231.5,52.5 231.5,57.5 231.5,62.5C 232.833,62.5 234.167,62.5 235.5,62.5C 234.88,68.9262 235.547,74.9262 237.5,80.5C 238.325,84.6472 238.825,88.9805 239,93.5C 240,94.8333 241,96.1667 242,97.5C 243.536,109.62 245.036,121.62 246.5,133.5C 246.334,139.176 246.501,144.843 247,150.5C 248.011,151.337 249.178,151.67 250.5,151.5C 252.113,163.974 253.28,176.641 254,189.5C 255,190.167 256,190.833 257,191.5C 257.053,197.043 257.886,202.377 259.5,207.5C 258.874,214.584 259.541,221.25 261.5,227.5C 263.442,232.056 264.108,237.056 263.5,242.5C 263.025,245.082 263.692,247.082 265.5,248.5C 264.872,255.913 265.539,262.913 267.5,269.5C 268.75,269.577 269.583,270.244 270,271.5C 270.835,286.857 272.002,302.19 273.5,317.5C 274.086,317.709 274.586,318.043 275,318.5C 275.827,331.007 275.66,343.34 274.5,355.5C 269.072,357.182 263.405,358.015 257.5,358C 256.663,359.011 256.33,360.178 256.5,361.5C 251.637,361.181 246.97,361.514 242.5,362.5C 242.389,363.117 242.056,363.617 241.5,364C 237.167,364.333 232.833,364.667 228.5,365C 227.167,365.667 225.833,366.333 224.5,367C 219.177,367.499 213.844,367.666 208.5,367.5C 208.64,369.124 207.973,370.29 206.5,371C 204.833,371.167 203.167,371.333 201.5,371.5C 199.36,371.444 197.694,370.777 196.5,369.5C 196.663,367.143 196.497,364.81 196,362.5C 195.329,361.748 194.496,361.414 193.5,361.5C 193.5,361.167 193.5,360.833 193.5,360.5C 193.5,353.833 193.5,347.167 193.5,340.5C 192.5,340.5 191.5,340.5 190.5,340.5C 189.328,332.321 188.328,323.988 187.5,315.5C 187.5,309.167 187.5,302.833 187.5,296.5C 186.167,296.5 184.833,296.5 183.5,296.5C 183.5,296.167 183.5,295.833 183.5,295.5C 184.113,289.729 183.446,284.396 181.5,279.5C 181.5,273.167 181.5,266.833 181.5,260.5C 180.167,260.5 178.833,260.5 177.5,260.5C 178.12,254.074 177.453,248.074 175.5,242.5C 174.673,237.349 174.173,232.016 174,226.5C 173.311,225.643 172.478,224.977 171.5,224.5C 168.644,210.506 166.644,196.506 165.5,182.5C 163.821,182.715 162.821,182.048 162.5,180.5C 163.08,176.351 162.414,172.684 160.5,169.5C 159.677,166.023 159.177,162.356 159,158.5C 158.005,157.934 157.172,157.267 156.5,156.5C 157.036,153.302 156.369,150.635 154.5,148.5C 153.549,147.081 153.216,145.415 153.5,143.5C 153.923,141.219 153.256,139.552 151.5,138.5C 149.877,136.815 148.544,134.815 147.5,132.5C 147.5,130.5 147.5,128.5 147.5,126.5C 145.167,126.5 142.833,126.5 140.5,126.5C 140.5,127.5 140.5,128.5 140.5,129.5C 138.919,131.142 138.253,133.142 138.5,135.5C 137.167,135.5 135.833,135.5 134.5,135.5C 134.5,137.833 134.5,140.167 134.5,142.5C 132.78,144.658 131.947,147.325 132,150.5C 130.989,151.337 129.822,151.67 128.5,151.5C 128.81,154.713 128.477,157.713 127.5,160.5C 125.586,163.684 124.92,167.351 125.5,171.5C 124.828,172.267 123.995,172.934 123,173.5C 122.823,177.356 122.323,181.023 121.5,184.5C 119.586,187.684 118.92,191.351 119.5,195.5C 117.924,199.951 117.09,204.618 117,209.5C 115.989,210.337 114.822,210.67 113.5,210.5C 113.274,213.249 113.607,215.916 114.5,218.5C 112.501,227.532 111.168,236.532 110.5,245.5C 109.167,245.5 107.833,245.5 106.5,245.5C 105.613,256.484 104.946,267.484 104.5,278.5C 104.5,279.167 104.167,279.5 103.5,279.5C 102.5,279.5 101.5,279.5 100.5,279.5C 100.5,286.5 100.5,293.5 100.5,300.5C 98.631,302.635 97.9644,305.302 98.5,308.5C 98.5,311.833 98.5,315.167 98.5,318.5C 97.1667,318.5 95.8333,318.5 94.5,318.5C 94.5,325.167 94.5,331.833 94.5,338.5C 93.0374,347.211 92.0374,355.877 91.5,364.5C 90.1667,364.5 89.5,365.167 89.5,366.5C 89.7444,370.949 87.5777,372.615 83,371.5C 81.1667,371.333 79.3333,371.167 77.5,371C 75.7139,370.804 74.3805,369.971 73.5,368.5C 68.3489,367.833 63.3489,367.166 58.5,366.5C 56.7211,364.656 54.3878,363.99 51.5,364.5C 44.2483,363.177 36.915,362.344 29.5,362C 28.7476,361.329 28.4142,360.496 28.5,359.5C 22.772,357.918 16.772,356.585 10.5,355.5C 10.5,344.5 10.5,333.5 10.5,322.5C 11.5,322.5 12.5,322.5 13.5,322.5C 13.5,316.5 13.5,310.5 13.5,304.5C 12.5829,301.995 12.5829,299.662 13.5,297.5C 14.5,297.5 15.5,297.5 16.5,297.5C 16.5,289.5 16.5,281.5 16.5,273.5C 18.4633,266.576 19.1299,259.243 18.5,251.5C 18.2852,249.821 18.9519,248.821 20.5,248.5C 22.4417,243.944 23.1083,238.944 22.5,233.5C 23.2216,233.082 23.7216,232.416 24,231.5C 24.1721,224.987 24.6721,218.653 25.5,212.5C 26.5,212.5 27.5,212.5 28.5,212.5C 28.5,206.833 28.5,201.167 28.5,195.5C 28.3284,194.508 28.6618,193.842 29.5,193.5C 31.4612,186.913 32.1279,179.913 31.5,172.5C 32.209,171.596 33.209,171.263 34.5,171.5C 34.5314,160.7 35.3648,150.033 37,139.5C 37.6708,138.748 38.5041,138.414 39.5,138.5C 41.45,133.265 42.1167,127.598 41.5,121.5C 42.9819,115.157 43.9819,108.824 44.5,102.5C 46.45,97.2649 47.1167,91.5982 46.5,85.5C 47.209,84.596 48.209,84.2627 49.5,84.5C 49.8623,72.4731 50.6956,60.4731 52,48.5C 52.3826,47.944 52.8826,47.6107 53.5,47.5C 54.5,47.5 55.5,47.5 56.5,47.5C 56.5,42.5 56.5,37.5 56.5,32.5C 57.1534,31.1932 57.8201,29.8599 58.5,28.5C 58.3902,22.8371 58.3902,17.1705 58.5,11.5C 59.8333,11.5 61.1667,11.5 62.5,11.5C 62.5,7.5 62.5,3.5 62.5,-0.5 Z"/></g>
<g><path style="opacity:0.188" fill="#202125" d="M 213.5,-0.5 C 213.833,-0.5 214.167,-0.5 214.5,-0.5C 214.5,0.5 214.5,1.5 214.5,2.5C 212.5,2.5 210.5,2.5 208.5,2.5C 210.531,2.0276 212.198,1.0276 213.5,-0.5 Z"/></g>
<g><path style="opacity:0.667" fill="#131416" d="M 208.5,2.5 C 208.5,3.5 208.5,4.5 208.5,5.5C 206.5,5.5 204.5,5.5 202.5,5.5C 202.715,7.17876 202.048,8.17876 200.5,8.5C 201.234,7.29208 201.567,5.95875 201.5,4.5C 204.211,4.81507 206.544,4.14841 208.5,2.5 Z"/></g>
<g><path style="opacity:0.212" fill="#151719" d="M 61.5,-0.5 C 61.8333,-0.5 62.1667,-0.5 62.5,-0.5C 62.5,3.5 62.5,7.5 62.5,11.5C 61.1667,11.5 59.8333,11.5 58.5,11.5C 59.209,10.596 60.209,10.2627 61.5,10.5C 61.5,6.83333 61.5,3.16667 61.5,-0.5 Z"/></g>
<g><path style="opacity:0.35" fill="#141517" d="M 83.5,5.5 C 85.2713,6.86636 86.9379,8.36636 88.5,10C 99.0081,10.1697 109.341,10.6697 119.5,11.5C 108.167,11.5 96.8333,11.5 85.5,11.5C 84.8333,9.5 84.1667,7.5 83.5,5.5 Z"/></g>
<g><path style="opacity:0.276" fill="#131416" d="M 193.5,9.5 C 186.576,11.4633 179.243,12.1299 171.5,11.5C 178.734,10.8022 186.067,10.1355 193.5,9.5 Z"/></g>
<g><path style="opacity:0.344" fill="#101113" d="M 56.5,32.5 C 56.5,37.5 56.5,42.5 56.5,47.5C 55.5,47.5 54.5,47.5 53.5,47.5C 55.0558,42.6087 56.0558,37.6087 56.5,32.5 Z"/></g>
<g><path style="opacity:0.045" fill="#191b1e" d="M 229.5,33.5 C 230.216,38.0638 230.883,42.7305 231.5,47.5C 229.564,43.2853 228.897,38.6186 229.5,33.5 Z"/></g>
<g><path style="opacity:0.58" fill="#0e0f11" d="M 231.5,47.5 C 232.486,51.97 232.819,56.6367 232.5,61.5C 233.791,61.2627 234.791,61.596 235.5,62.5C 234.167,62.5 232.833,62.5 231.5,62.5C 231.5,57.5 231.5,52.5 231.5,47.5 Z"/></g>
<g><path style="opacity:0.167" fill="#181a1d" d="M 235.5,62.5 C 236.205,68.3992 236.872,74.3992 237.5,80.5C 235.547,74.9262 234.88,68.9262 235.5,62.5 Z"/></g>
<g><path style="opacity:0.446" fill="#0f1112" d="M 46.5,85.5 C 47.1167,91.5982 46.45,97.2649 44.5,102.5C 45.1261,96.7322 45.7927,91.0655 46.5,85.5 Z"/></g>
<g><path style="opacity:0.571" fill="#0f1112" d="M 147.5,132.5 C 146.89,127.409 144.557,126.409 140.5,129.5C 140.5,128.5 140.5,127.5 140.5,126.5C 142.833,126.5 145.167,126.5 147.5,126.5C 147.5,128.5 147.5,130.5 147.5,132.5 Z"/></g>
<g><path style="opacity:0.319" fill="#131416" d="M 41.5,121.5 C 42.1167,127.598 41.45,133.265 39.5,138.5C 40.1261,132.732 40.7927,127.066 41.5,121.5 Z"/></g>
<g><path style="opacity:0.271" fill="#15171a" d="M 138.5,135.5 C 136.509,137.488 135.175,139.822 134.5,142.5C 134.5,140.167 134.5,137.833 134.5,135.5C 135.833,135.5 137.167,135.5 138.5,135.5 Z"/></g>
<g><path style="opacity:0.343" fill="#1a1d1f" d="M 151.5,138.5 C 153.256,139.552 153.923,141.219 153.5,143.5C 152.463,142.07 151.796,140.403 151.5,138.5 Z"/></g>
<g><path style="opacity:0.657" fill="#0e0f11" d="M 246.5,133.5 C 247.327,138.651 247.827,143.984 248,149.5C 248.995,150.066 249.828,150.733 250.5,151.5C 249.178,151.67 248.011,151.337 247,150.5C 246.501,144.843 246.334,139.176 246.5,133.5 Z"/></g>
<g><path style="opacity:0.407" fill="#141417" d="M 154.5,148.5 C 156.369,150.635 157.036,153.302 156.5,156.5C 155.745,153.947 155.078,151.28 154.5,148.5 Z"/></g>
<g><path style="opacity:0.234" fill="#141517" d="M 127.5,160.5 C 126.897,164.273 126.23,167.939 125.5,171.5C 124.92,167.351 125.586,163.684 127.5,160.5 Z"/></g>
<g><path style="opacity:0.191" fill="#1c1d20" d="M 160.5,169.5 C 162.414,172.684 163.08,176.351 162.5,180.5C 161.77,176.939 161.103,173.273 160.5,169.5 Z"/></g>
<g><path style="opacity:0.319" fill="#101213" d="M 31.5,172.5 C 32.1279,179.913 31.4612,186.913 29.5,193.5C 30.134,186.4 30.8007,179.4 31.5,172.5 Z"/></g>
<g><path style="opacity:0.044" fill="#1f2124" d="M 121.5,184.5 C 120.897,188.273 120.23,191.939 119.5,195.5C 118.92,191.351 119.586,187.684 121.5,184.5 Z"/></g>
<g><path style="opacity:0.293" fill="#1d1f22" d="M 28.5,195.5 C 28.5,201.167 28.5,206.833 28.5,212.5C 27.5,212.5 26.5,212.5 25.5,212.5C 25.7828,211.711 26.2828,211.044 27,210.5C 27.1739,205.316 27.6739,200.316 28.5,195.5 Z"/></g>
<g><path style="opacity:0.118" fill="#1e2023" d="M 259.5,207.5 C 260.201,214.067 260.868,220.733 261.5,227.5C 259.541,221.25 258.874,214.584 259.5,207.5 Z"/></g>
<g><path style="opacity:0.117" fill="#1a1b1f" d="M 22.5,233.5 C 23.1083,238.944 22.4417,243.944 20.5,248.5C 21.1205,243.398 21.7872,238.398 22.5,233.5 Z"/></g>
<g><path style="opacity:0.146" fill="#1a1c1f" d="M 175.5,242.5 C 177.453,248.074 178.12,254.074 177.5,260.5C 176.795,254.601 176.128,248.601 175.5,242.5 Z"/></g>
<g><path style="opacity:0.048" fill="#1b1e21" d="M 263.5,242.5 C 264.285,244.374 264.952,246.374 265.5,248.5C 263.692,247.082 263.025,245.082 263.5,242.5 Z"/></g>
<g><path style="opacity:0.028" fill="#212327" d="M 18.5,251.5 C 19.1299,259.243 18.4633,266.576 16.5,273.5C 17.1355,266.067 17.8022,258.734 18.5,251.5 Z"/></g>
<g><path style="opacity:0.708" fill="#151718" d="M 110.5,245.5 C 109.791,246.404 108.791,246.737 107.5,246.5C 107.249,249.909 107.583,253.242 108.5,256.5C 106.239,263.776 104.906,271.109 104.5,278.5C 104.946,267.484 105.613,256.484 106.5,245.5C 107.833,245.5 109.167,245.5 110.5,245.5 Z"/></g>
<g><path style="opacity:0.175" fill="#18191b" d="M 265.5,248.5 C 266.199,255.4 266.866,262.4 267.5,269.5C 265.539,262.913 264.872,255.913 265.5,248.5 Z"/></g>
<g><path style="opacity:0.507" fill="#121314" d="M 177.5,260.5 C 178.833,260.5 180.167,260.5 181.5,260.5C 181.5,266.833 181.5,273.167 181.5,279.5C 180.673,274.015 180.173,268.348 180,262.5C 179.005,261.934 178.172,261.267 177.5,260.5 Z"/></g>
<g><path style="opacity:0.364" fill="#131416" d="M 16.5,273.5 C 16.5,281.5 16.5,289.5 16.5,297.5C 15.5,297.5 14.5,297.5 13.5,297.5C 14.9863,289.466 15.9863,281.466 16.5,273.5 Z"/></g>
<g><path style="opacity:0.219" fill="#161719" d="M 103.5,279.5 C 101.909,286.408 100.909,293.408 100.5,300.5C 100.5,293.5 100.5,286.5 100.5,279.5C 101.5,279.5 102.5,279.5 103.5,279.5 Z"/></g>
<g><path style="opacity:0.109" fill="#1a1c1f" d="M 181.5,279.5 C 183.446,284.396 184.113,289.729 183.5,295.5C 182.79,290.268 182.123,284.935 181.5,279.5 Z"/></g>
<g><path style="opacity:0.275" fill="#1f2124" d="M 100.5,300.5 C 100.037,303.33 99.3705,305.997 98.5,308.5C 97.9644,305.302 98.631,302.635 100.5,300.5 Z"/></g>
<g><path style="opacity:0.076" fill="#1b1e20" d="M 13.5,304.5 C 13.5,310.5 13.5,316.5 13.5,322.5C 12.5,322.5 11.5,322.5 10.5,322.5C 10.1667,322.5 9.83333,322.5 9.5,322.5C 10.209,321.596 11.209,321.263 12.5,321.5C 12.1778,315.642 12.5111,309.975 13.5,304.5 Z"/></g>
<g><path style="opacity:0.119" fill="#151618" d="M 183.5,296.5 C 184.833,296.5 186.167,296.5 187.5,296.5C 187.5,302.833 187.5,309.167 187.5,315.5C 186.51,309.69 186.177,303.69 186.5,297.5C 185.209,297.737 184.209,297.404 183.5,296.5 Z"/></g>
<g><path style="opacity:0.567" fill="#151617" d="M 98.5,318.5 C 98.3718,320.09 97.7051,321.423 96.5,322.5C 95.8332,327.985 95.1665,333.319 94.5,338.5C 94.5,331.833 94.5,325.167 94.5,318.5C 95.8333,318.5 97.1667,318.5 98.5,318.5 Z"/></g>
<g><path style="opacity:0.758" fill="#0c0d0d" d="M 9.5,322.5 C 9.83333,322.5 10.1667,322.5 10.5,322.5C 10.5,333.5 10.5,344.5 10.5,355.5C 16.772,356.585 22.772,357.918 28.5,359.5C 22.332,358.853 16.1653,358.186 10,357.5C 8.58394,345.882 8.41727,334.216 9.5,322.5 Z"/></g>
<g><path style="opacity:0.254" fill="#1b1d20" d="M 190.5,340.5 C 191.5,340.5 192.5,340.5 193.5,340.5C 193.5,347.167 193.5,353.833 193.5,360.5C 193.087,353.739 192.087,347.072 190.5,340.5 Z"/></g>
<g><path style="opacity:0.383" fill="#0f1011" d="M 274.5,355.5 C 274.586,356.496 274.252,357.329 273.5,358C 268.5,358.333 263.5,358.667 258.5,359C 257.663,360.011 257.33,361.178 257.5,362.5C 252.5,362.5 247.5,362.5 242.5,362.5C 246.97,361.514 251.637,361.181 256.5,361.5C 256.33,360.178 256.663,359.011 257.5,358C 263.405,358.015 269.072,357.182 274.5,355.5 Z"/></g>
<g><path style="opacity:0.367" fill="#141517" d="M 193.5,361.5 C 194.496,361.414 195.329,361.748 196,362.5C 196.497,364.81 196.663,367.143 196.5,369.5C 195.918,366.728 194.918,364.061 193.5,361.5 Z"/></g>
<g><path style="opacity:0.025" fill="#181b1d" d="M 51.5,364.5 C 54.3878,363.99 56.7211,364.656 58.5,366.5C 56.0479,365.935 53.7146,365.268 51.5,364.5 Z"/></g>
<g><path style="opacity:0.082" fill="#212327" d="M 91.5,364.5 C 91.1667,365.5 90.5,366.167 89.5,366.5C 89.5,365.167 90.1667,364.5 91.5,364.5 Z"/></g>
</svg>
