<?xml version="1.0" encoding="UTF-8"?>
<!DOCTYPE svg PUBLIC "-//W3C//DTD SVG 1.1//EN" "http://www.w3.org/Graphics/SVG/1.1/DTD/svg11.dtd">
<svg xmlns="http://www.w3.org/2000/svg" version="1.1" width="272px" height="355px" style="shape-rendering:geometricPrecision; text-rendering:geometricPrecision; image-rendering:optimizeQuality; fill-rule:evenodd; clip-rule:evenodd" xmlns:xlink="http://www.w3.org/1999/xlink">
<g><path style="opacity:0.035" fill="#161310" d="M 92.5,-0.5 C 92.8333,-0.5 93.1667,-0.5 93.5,-0.5C 94.6602,1.20266 93.9935,1.86932 91.5,1.5C 91.8333,0.833333 92.1667,0.166667 92.5,-0.5 Z"/></g>
<g><path style="opacity:0.388" fill="#b6af96" d="M 162.5,-0.5 C 165.167,-0.5 167.833,-0.5 170.5,-0.5C 174.01,3.99418 177.343,8.66085 180.5,13.5C 181.602,14.1757 182.602,14.8423 183.5,15.5C 182.855,16.8118 181.855,17.8118 180.5,18.5C 179.534,20.396 179.201,22.396 179.5,24.5C 178.5,24.5 177.5,24.5 176.5,24.5C 177.412,20.8694 177.579,17.2027 177,13.5C 175.791,11.8165 174.291,10.4832 172.5,9.5C 172.526,5.63308 171.359,4.96642 169,7.5C 167.527,7.09693 166.194,6.43026 165,5.5C 163.306,7.23956 162.139,9.23956 161.5,11.5C 159.5,11.5 157.5,11.5 155.5,11.5C 158.868,8.09633 161.201,4.09633 162.5,-0.5 Z"/></g>
<g><path style="opacity:0.285" fill="#cfc298" d="M 93.5,-0.5 C 95.5,-0.5 97.5,-0.5 99.5,-0.5C 104.988,7.13075 109.988,15.1307 114.5,23.5C 113.244,23.4614 112.244,23.9614 111.5,25C 115.935,27.5509 120.601,29.5509 125.5,31C 124.833,31.6667 124.167,32.3333 123.5,33C 124.938,33.2189 126.271,33.7189 127.5,34.5C 127.376,35.1067 127.043,35.44 126.5,35.5C 121.187,36.0682 116.187,35.2348 111.5,33C 109.879,30.2577 107.546,28.4244 104.5,27.5C 101.793,25.0882 100.46,22.0882 100.5,18.5C 99.5,18.5 98.5,18.5 97.5,18.5C 97.6567,17.1266 97.49,15.7932 97,14.5C 95.6152,13.4495 94.6152,12.1161 94,10.5C 92.6569,11.2135 91.3236,10.8802 90,9.5C 89.5831,10.756 88.7498,11.4226 87.5,11.5C 87.5,10.1667 87.5,8.83333 87.5,7.5C 88.3229,5.19538 89.6563,3.19538 91.5,1.5C 93.9935,1.86932 94.6602,1.20266 93.5,-0.5 Z"/></g>
<g><path style="opacity:0.566" fill="#d8c897" d="M 172.5,9.5 C 171.603,8.40191 170.77,8.40191 170,9.5C 169.338,11.8127 168.838,14.146 168.5,16.5C 166.032,15.2499 163.699,15.4166 161.5,17C 161.647,18.9742 161.981,20.9742 162.5,23C 161.062,24.2408 159.562,24.7408 158,24.5C 156.885,26.9081 155.218,28.9081 153,30.5C 152.517,31.448 152.351,32.448 152.5,33.5C 148.047,34.2418 143.714,35.2418 139.5,36.5C 139.056,34.8868 138.056,33.7202 136.5,33C 138.839,30.7311 138.172,29.2311 134.5,28.5C 136.006,27.2528 137.506,27.2528 139,28.5C 139.333,27.8333 139.667,27.1667 140,26.5C 142.401,27.6023 144.901,27.769 147.5,27C 146.494,25.5249 146.494,23.6915 147.5,21.5C 151.106,18.9759 153.772,15.6426 155.5,11.5C 157.5,11.5 159.5,11.5 161.5,11.5C 162.139,9.23956 163.306,7.23956 165,5.5C 166.194,6.43026 167.527,7.09693 169,7.5C 171.359,4.96642 172.526,5.63308 172.5,9.5 Z"/></g>
<g><path style="opacity:0.996" fill="#000000" d="M 84.5,16.5 C 82.0831,18.4962 82.7498,19.4962 86.5,19.5C 86.15,25.7577 87.8167,31.4244 91.5,36.5C 92.4656,38.396 92.7989,40.396 92.5,42.5C 94.9598,43.9366 97.6265,44.9366 100.5,45.5C 100.5,46.1667 100.5,46.8333 100.5,47.5C 101.336,50.9075 102.336,54.2408 103.5,57.5C 108.311,60.4625 112.644,59.7959 116.5,55.5C 117.452,53.9547 117.785,52.288 117.5,50.5C 118.338,50.1583 118.672,49.4916 118.5,48.5C 124.29,47.7087 127.29,44.3754 127.5,38.5C 132.294,35.2821 135.961,36.2821 138.5,41.5C 139.325,42.3857 140.325,42.719 141.5,42.5C 142.167,44.5 142.833,46.5 143.5,48.5C 144.5,48.5 145.5,48.5 146.5,48.5C 145.941,56.5233 149.275,59.19 156.5,56.5C 156.5,55.5 156.5,54.5 156.5,53.5C 158.167,53.5 159.833,53.5 161.5,53.5C 163.057,52.5337 164.39,51.2004 165.5,49.5C 168.457,48.4926 171.124,47.1592 173.5,45.5C 175.457,40.2169 177.79,35.0502 180.5,30C 179.167,28.1598 179.334,27.6598 181,28.5C 181.539,25.4715 182.206,22.4715 183,19.5C 185.607,18.8767 188.107,18.21 190.5,17.5C 201.807,22.1553 212.807,27.322 223.5,33C 228.394,34.8112 233.394,36.4779 238.5,38C 240.293,40.7953 242.46,43.2953 245,45.5C 247.705,51.9134 250.705,58.2467 254,64.5C 256.067,72.7965 258.734,80.7965 262,88.5C 264.551,96.9946 266.385,105.661 267.5,114.5C 268.688,117.021 270.022,119.355 271.5,121.5C 271.5,127.5 271.5,133.5 271.5,139.5C 265.489,142.334 259.489,145.167 253.5,148C 242.196,149.388 230.863,149.721 219.5,149C 217.437,146.489 215.937,143.656 215,140.5C 213.984,141.634 213.317,141.301 213,139.5C 212.654,141.218 212.154,142.885 211.5,144.5C 212.128,147.78 212.461,151.113 212.5,154.5C 211.125,161.494 210.459,168.66 210.5,176C 211.212,200.828 211.712,225.661 212,250.5C 213.508,252.017 214.342,253.851 214.5,256C 213.369,272.479 213.203,288.979 214,305.5C 214.29,307.044 214.956,308.377 216,309.5C 216.667,316.5 216.667,323.5 216,330.5C 215.167,331.333 214.333,332.167 213.5,333C 207.628,335.198 201.962,337.865 196.5,341C 176.436,347.101 155.936,350.601 135,351.5C 122.094,349.26 108.927,348.093 95.5,348C 86.7632,345.151 77.7632,343.151 68.5,342C 61.4313,339.783 54.4313,337.283 47.5,334.5C 46.3336,312.508 46.1669,290.508 47,268.5C 48.3246,241.98 48.9913,215.313 49,188.5C 50.8831,183.526 51.7164,178.359 51.5,173C 50.4036,163.131 49.2369,153.297 48,143.5C 47.3717,147.467 45.205,150.301 41.5,152C 26.5938,153.012 12.5938,150.178 -0.5,143.5C -0.5,128.5 -0.5,113.5 -0.5,98.5C 1.80842,94.9532 2.97508,90.9532 3,86.5C 6.81863,83.0647 8.4853,78.7314 8,73.5C 12.2038,60.5906 18.3705,48.7573 26.5,38C 31.9191,36.4544 37.2524,34.7878 42.5,33C 43.3366,31.9887 43.67,30.8221 43.5,29.5C 55.7364,26.2251 67.7364,22.0584 79.5,17C 81.1341,16.5065 82.8008,16.3398 84.5,16.5 Z"/></g>
<g><path style="opacity:0.935" fill="#c7c1a5" d="M 87.5,7.5 C 87.5,8.83333 87.5,10.1667 87.5,11.5C 87.0499,17.3343 87.7166,23.001 89.5,28.5C 93.3501,34.055 97.0168,39.7216 100.5,45.5C 97.6265,44.9366 94.9598,43.9366 92.5,42.5C 92.7989,40.396 92.4656,38.396 91.5,36.5C 87.8167,31.4244 86.15,25.7577 86.5,19.5C 82.7498,19.4962 82.0831,18.4962 84.5,16.5C 84.7108,13.1517 85.7108,10.1517 87.5,7.5 Z"/></g>
<g><path style="opacity:0.206" fill="#b9b193" d="M 147.5,21.5 C 146.494,23.6915 146.494,25.5249 147.5,27C 144.901,27.769 142.401,27.6023 140,26.5C 139.667,27.1667 139.333,27.8333 139,28.5C 137.506,27.2528 136.006,27.2528 134.5,28.5C 138.172,29.2311 138.839,30.7311 136.5,33C 138.056,33.7202 139.056,34.8868 139.5,36.5C 139.897,38.6621 141.231,39.9954 143.5,40.5C 144.522,43.2019 145.522,45.8686 146.5,48.5C 145.5,48.5 144.5,48.5 143.5,48.5C 142.833,46.5 142.167,44.5 141.5,42.5C 140.325,42.719 139.325,42.3857 138.5,41.5C 135.961,36.2821 132.294,35.2821 127.5,38.5C 127.29,44.3754 124.29,47.7087 118.5,48.5C 118.351,47.448 118.517,46.448 119,45.5C 122.495,43.5032 123.995,40.5032 123.5,36.5C 124.791,36.7373 125.791,36.404 126.5,35.5C 127.043,35.44 127.376,35.1067 127.5,34.5C 126.271,33.7189 124.938,33.2189 123.5,33C 124.167,32.3333 124.833,31.6667 125.5,31C 120.601,29.5509 115.935,27.5509 111.5,25C 112.244,23.9614 113.244,23.4614 114.5,23.5C 124.02,27.1068 133.687,27.4401 143.5,24.5C 145.041,23.7142 146.374,22.7142 147.5,21.5 Z"/></g>
<g><path style="opacity:1" fill="#fae5a5" d="M 126.5,35.5 C 125.791,36.404 124.791,36.7373 123.5,36.5C 123.995,40.5032 122.495,43.5032 119,45.5C 118.517,46.448 118.351,47.448 118.5,48.5C 118.672,49.4916 118.338,50.1583 117.5,50.5C 115.5,51.1667 113.5,51.8333 111.5,52.5C 111.5,53.5 111.5,54.5 111.5,55.5C 109.712,55.7852 108.045,55.4519 106.5,54.5C 104.753,51.8659 102.753,49.5326 100.5,47.5C 100.5,46.8333 100.5,46.1667 100.5,45.5C 97.0168,39.7216 93.3501,34.055 89.5,28.5C 87.7166,23.001 87.0499,17.3343 87.5,11.5C 88.7498,11.4226 89.5831,10.756 90,9.5C 91.3236,10.8802 92.6569,11.2135 94,10.5C 94.6152,12.1161 95.6152,13.4495 97,14.5C 97.49,15.7932 97.6567,17.1266 97.5,18.5C 98.5,18.5 99.5,18.5 100.5,18.5C 100.46,22.0882 101.793,25.0882 104.5,27.5C 107.546,28.4244 109.879,30.2577 111.5,33C 116.187,35.2348 121.187,36.0682 126.5,35.5 Z"/></g>
<g><path style="opacity:1" fill="#f5e2a7" d="M 172.5,9.5 C 174.291,10.4832 175.791,11.8165 177,13.5C 177.579,17.2027 177.412,20.8694 176.5,24.5C 175.178,24.33 174.011,24.6634 173,25.5C 172.857,29.9568 171.19,33.6235 168,36.5C 167.122,39.7086 165.789,42.7086 164,45.5C 159.927,46.7386 157.427,49.4052 156.5,53.5C 156.5,54.5 156.5,55.5 156.5,56.5C 154.473,56.6621 152.473,56.4955 150.5,56C 149.248,53.3673 147.914,50.8673 146.5,48.5C 145.522,45.8686 144.522,43.2019 143.5,40.5C 141.231,39.9954 139.897,38.6621 139.5,36.5C 143.714,35.2418 148.047,34.2418 152.5,33.5C 152.351,32.448 152.517,31.448 153,30.5C 155.218,28.9081 156.885,26.9081 158,24.5C 159.562,24.7408 161.062,24.2408 162.5,23C 161.981,20.9742 161.647,18.9742 161.5,17C 163.699,15.4166 166.032,15.2499 168.5,16.5C 168.838,14.146 169.338,11.8127 170,9.5C 170.77,8.40191 171.603,8.40191 172.5,9.5 Z"/></g>
<g><path style="opacity:1" fill="#272e2f" d="M 183.5,15.5 C 185.833,16.1667 188.167,16.8333 190.5,17.5C 188.107,18.21 185.607,18.8767 183,19.5C 182.206,22.4715 181.539,25.4715 181,28.5C 179.334,27.6598 179.167,28.1598 180.5,30C 177.79,35.0502 175.457,40.2169 173.5,45.5C 171.124,47.1592 168.457,48.4926 165.5,49.5C 164.39,51.2004 163.057,52.5337 161.5,53.5C 161.5,51.8333 161.5,50.1667 161.5,48.5C 164.182,46.1744 167.182,44.1744 170.5,42.5C 172.625,36.537 174.625,30.537 176.5,24.5C 177.5,24.5 178.5,24.5 179.5,24.5C 179.201,22.396 179.534,20.396 180.5,18.5C 181.855,17.8118 182.855,16.8118 183.5,15.5 Z"/></g>
<g><path style="opacity:1" fill="#c4c1a1" d="M 176.5,24.5 C 174.625,30.537 172.625,36.537 170.5,42.5C 167.182,44.1744 164.182,46.1744 161.5,48.5C 161.5,50.1667 161.5,51.8333 161.5,53.5C 159.833,53.5 158.167,53.5 156.5,53.5C 157.427,49.4052 159.927,46.7386 164,45.5C 165.789,42.7086 167.122,39.7086 168,36.5C 171.19,33.6235 172.857,29.9568 173,25.5C 174.011,24.6634 175.178,24.33 176.5,24.5 Z"/></g>
<g><path style="opacity:1" fill="#dcebe4" d="M 135.5,53.5 C 133.2,55.2018 130.533,55.8685 127.5,55.5C 123.847,46.0736 126.68,42.7403 136,45.5C 136.801,48.367 136.634,51.0336 135.5,53.5 Z"/></g>
<g><path style="opacity:1" fill="#d2c5a4" d="M 100.5,47.5 C 102.753,49.5326 104.753,51.8659 106.5,54.5C 108.045,55.4519 109.712,55.7852 111.5,55.5C 111.5,54.5 111.5,53.5 111.5,52.5C 113.5,51.8333 115.5,51.1667 117.5,50.5C 117.785,52.288 117.452,53.9547 116.5,55.5C 112.644,59.7959 108.311,60.4625 103.5,57.5C 102.336,54.2408 101.336,50.9075 100.5,47.5 Z"/></g>
<g><path style="opacity:1" fill="#747971" d="M 135.5,53.5 C 135.5,54.5 135.5,55.5 135.5,56.5C 132.615,56.8064 129.948,56.4731 127.5,55.5C 130.533,55.8685 133.2,55.2018 135.5,53.5 Z"/></g>
<g><path style="opacity:1" fill="#877e6f" d="M 146.5,48.5 C 147.914,50.8673 149.248,53.3673 150.5,56C 152.473,56.4955 154.473,56.6621 156.5,56.5C 149.275,59.19 145.941,56.5233 146.5,48.5 Z"/></g>
<g><path style="opacity:1" fill="#677271" d="M 127.5,66.5 C 129.948,65.5269 132.615,65.1936 135.5,65.5C 135.5,66.5 135.5,67.5 135.5,68.5C 133.2,66.7982 130.533,66.1315 127.5,66.5 Z"/></g>
<g><path style="opacity:1" fill="#cbd8d4" d="M 127.5,66.5 C 130.533,66.1315 133.2,66.7982 135.5,68.5C 136.551,71.3442 136.551,74.3442 135.5,77.5C 132.833,77.5 130.167,77.5 127.5,77.5C 126.272,73.8162 126.272,70.1495 127.5,66.5 Z"/></g>
<g><path style="opacity:1" fill="#becfcf" d="M 127.5,90.5 C 130.167,90.5 132.833,90.5 135.5,90.5C 136.833,94.5 136.833,98.5 135.5,102.5C 132.833,102.5 130.167,102.5 127.5,102.5C 126.167,98.5 126.167,94.5 127.5,90.5 Z"/></g>
</svg>
