<?xml version="1.0" encoding="UTF-8"?>
<!DOCTYPE svg PUBLIC "-//W3C//DTD SVG 1.1//EN" "http://www.w3.org/Graphics/SVG/1.1/DTD/svg11.dtd">
<svg xmlns="http://www.w3.org/2000/svg" version="1.1" width="320px" height="362px" style="shape-rendering:geometricPrecision; text-rendering:geometricPrecision; image-rendering:optimizeQuality; fill-rule:evenodd; clip-rule:evenodd" xmlns:xlink="http://www.w3.org/1999/xlink">
<g><path style="opacity:0.999" fill="#000000" d="M 44.5,4.5 C 45.791,4.26269 46.791,4.59603 47.5,5.5C 49.6353,7.36895 52.3019,8.03562 55.5,7.5C 57.8292,9.27804 60.4958,10.278 63.5,10.5C 65.1667,10.5 66.8333,10.5 68.5,10.5C 68.5,11.5 68.5,12.5 68.5,13.5C 69.8333,13.5 71.1667,13.5 72.5,13.5C 72.5,12.5 72.5,11.5 72.5,10.5C 76.5,10.5 80.5,10.5 84.5,10.5C 84.2852,12.1788 84.9519,13.1788 86.5,13.5C 87.404,14.209 87.7373,15.209 87.5,16.5C 101.7,17.8586 116.034,18.8586 130.5,19.5C 130.33,20.8221 130.663,21.9887 131.5,23C 143.495,23.4999 155.495,23.6665 167.5,23.5C 167.5,22.5 167.5,21.5 167.5,20.5C 167.611,19.8826 167.944,19.3826 168.5,19C 171.562,18.2585 174.562,18.4252 177.5,19.5C 183.049,17.6137 188.549,15.6137 194,13.5C 195.301,13.6387 196.134,14.3054 196.5,15.5C 201.056,17.4417 206.056,18.1083 211.5,17.5C 211.5,16.1667 211.5,14.8333 211.5,13.5C 215.971,14.0894 219.971,13.4228 223.5,11.5C 228.928,10.5271 234.261,9.19377 239.5,7.5C 243.012,8.0545 246.012,7.38784 248.5,5.5C 249.492,5.32842 250.158,5.66175 250.5,6.5C 250.334,12.8421 250.5,19.1754 251,25.5C 252.011,26.3366 253.178,26.67 254.5,26.5C 254.5,35.5 254.5,44.5 254.5,53.5C 255.5,53.5 256.5,53.5 257.5,53.5C 258.359,57.1139 258.359,60.7806 257.5,64.5C 257.821,66.0481 258.821,66.7148 260.5,66.5C 260.334,71.5111 260.501,76.5111 261,81.5C 261.671,82.2524 262.504,82.5858 263.5,82.5C 263.5,83.1667 263.5,83.8333 263.5,84.5C 263.5,88.8333 263.5,93.1667 263.5,97.5C 264.833,97.5 266.167,97.5 267.5,97.5C 267.334,102.844 267.501,108.177 268,113.5C 270.023,115.769 270.856,118.436 270.5,121.5C 272.91,121.921 274.743,123.254 276,125.5C 276.499,130.489 276.666,135.489 276.5,140.5C 277.791,140.263 278.791,140.596 279.5,141.5C 278.868,149.573 279.535,157.24 281.5,164.5C 283.402,171.185 283.735,178.018 282.5,185C 286.993,188.834 289.826,193.667 291,199.5C 291.74,205.158 292.406,210.825 293,216.5C 293.667,217.167 294.333,217.833 295,218.5C 298.2,232.762 302.2,246.762 307,260.5C 307.497,262.81 307.663,265.143 307.5,267.5C 306.911,271.971 307.577,275.971 309.5,279.5C 309.5,279.833 309.5,280.167 309.5,280.5C 308.85,295.871 309.516,310.871 311.5,325.5C 314.423,326.689 315.089,328.689 313.5,331.5C 310.167,331.5 306.833,331.5 303.5,331.5C 303.5,332.5 303.5,333.5 303.5,334.5C 302.791,335.404 301.791,335.737 300.5,335.5C 296.029,334.911 292.029,335.577 288.5,337.5C 284.803,338.051 281.303,339.385 278,341.5C 276.159,338.677 274.659,338.844 273.5,342C 267.424,343.139 262.091,345.806 257.5,350C 243.79,351.021 230.123,351.854 216.5,352.5C 211.833,352.5 207.167,352.5 202.5,352.5C 202.5,353.833 202.5,355.167 202.5,356.5C 197.706,355.903 193.373,356.57 189.5,358.5C 187.243,359.803 185.41,359.136 184,356.5C 183.506,354.866 183.34,353.199 183.5,351.5C 182.209,351.737 181.209,351.404 180.5,350.5C 180.666,346.486 180.499,342.486 180,338.5C 179.329,337.748 178.496,337.414 177.5,337.5C 177.5,336.833 177.5,336.167 177.5,335.5C 177.5,332.167 177.5,328.833 177.5,325.5C 176.5,325.5 175.5,325.5 174.5,325.5C 173.677,322.023 173.177,318.356 173,314.5C 172.283,313.956 171.783,313.289 171.5,312.5C 171.5,308.5 171.5,304.5 171.5,300.5C 170.5,300.5 169.5,300.5 168.5,300.5C 167.596,299.791 167.263,298.791 167.5,297.5C 166.715,290.514 166.048,283.514 165.5,276.5C 164.167,276.5 162.833,276.5 161.5,276.5C 160.142,269.006 158.975,261.34 158,253.5C 154.133,251.064 152.966,247.73 154.5,243.5C 153.574,240.53 152.908,237.53 152.5,234.5C 153.036,231.302 152.369,228.635 150.5,226.5C 149.679,223.359 149.179,220.025 149,216.5C 148.302,215.309 147.469,214.309 146.5,213.5C 146.179,211.952 145.179,211.285 143.5,211.5C 143.5,214.833 143.5,218.167 143.5,221.5C 143.179,223.048 142.179,223.715 140.5,223.5C 140.666,228.511 140.499,233.511 140,238.5C 138.141,239.645 137.307,241.312 137.5,243.5C 138.483,248.143 138.65,252.809 138,257.5C 137.617,258.056 137.117,258.389 136.5,258.5C 135.5,258.5 134.5,258.5 133.5,258.5C 133.5,264.167 133.5,269.833 133.5,275.5C 133.5,275.833 133.5,276.167 133.5,276.5C 132.5,276.5 131.5,276.5 130.5,276.5C 130.5,284.167 130.5,291.833 130.5,299.5C 130.189,300.478 129.522,301.145 128.5,301.5C 127.504,307.463 127.171,313.463 127.5,319.5C 126.5,319.5 125.5,319.5 124.5,319.5C 124.5,323.167 124.5,326.833 124.5,330.5C 124.802,333.059 124.468,335.393 123.5,337.5C 121.731,339.399 120.398,341.732 119.5,344.5C 114.81,347.041 112.477,351.041 112.5,356.5C 107.135,356.956 101.801,357.623 96.5,358.5C 88.2312,356.53 79.5645,355.864 70.5,356.5C 68.9519,356.179 68.2852,355.179 68.5,353.5C 62.4908,353.666 56.4908,353.499 50.5,353C 49.8333,352.333 49.1667,351.667 48.5,351C 42.545,351.115 36.8784,350.115 31.5,348C 24.0885,346.917 16.7552,345.584 9.5,344C 6.02299,342.787 2.68966,341.287 -0.5,339.5C -0.5,334.167 -0.5,328.833 -0.5,323.5C 1.45334,317.926 2.12,311.926 1.5,305.5C 2.45837,305.047 3.2917,304.381 4,303.5C 6.14594,282.279 7.31261,260.946 7.5,239.5C 8.58617,239.38 9.25284,238.713 9.5,237.5C 10.2692,234.885 10.6025,232.219 10.5,229.5C 11.5,229.5 12.5,229.5 13.5,229.5C 13.6621,227.473 13.4955,225.473 13,223.5C 12.3292,222.748 11.4959,222.414 10.5,222.5C 10.5597,219.659 11.2264,216.993 12.5,214.5C 14.082,205.315 15.4153,195.815 16.5,186C 15.4626,172.886 15.4626,159.72 16.5,146.5C 17.5,146.5 18.5,146.5 19.5,146.5C 20.3424,141.213 20.6757,135.88 20.5,130.5C 21.1996,122.181 21.8663,113.847 22.5,105.5C 23.5,105.5 24.5,105.5 25.5,105.5C 25.5,98.5 25.5,91.5 25.5,84.5C 26.1499,84.1961 26.8165,83.8627 27.5,83.5C 28.1667,76.6786 28.8334,70.0119 29.5,63.5C 31.4684,55.5671 32.135,47.2337 31.5,38.5C 32.8333,38.5 34.1667,38.5 35.5,38.5C 35.3335,27.8281 35.5002,17.1615 36,6.5C 38.4815,4.68631 41.3148,4.01964 44.5,4.5 Z"/></g>
<g><path style="opacity:0.289" fill="#121416" d="M 47.5,5.5 C 50.2804,6.07841 52.9471,6.74508 55.5,7.5C 52.3019,8.03562 49.6353,7.36895 47.5,5.5 Z"/></g>
<g><path style="opacity:0.653" fill="#1b1c20" d="M 248.5,5.5 C 246.012,7.38784 243.012,8.0545 239.5,7.5C 242.171,5.88195 245.171,5.21528 248.5,5.5 Z"/></g>
<g><path style="opacity:0.38" fill="#0d0e10" d="M 250.5,6.5 C 251.328,12.3193 251.828,18.3193 252,24.5C 252.995,25.0659 253.828,25.7326 254.5,26.5C 253.178,26.67 252.011,26.3366 251,25.5C 250.5,19.1754 250.334,12.8421 250.5,6.5 Z"/></g>
<g><path style="opacity:0.225" fill="#1e2124" d="M 63.5,10.5 C 70.4015,9.59197 77.4015,9.59197 84.5,10.5C 80.5,10.5 76.5,10.5 72.5,10.5C 72.5,11.5 72.5,12.5 72.5,13.5C 71.1667,13.5 69.8333,13.5 68.5,13.5C 68.5,12.5 68.5,11.5 68.5,10.5C 66.8333,10.5 65.1667,10.5 63.5,10.5 Z"/></g>
<g><path style="opacity:0.416" fill="#1f2124" d="M 84.5,10.5 C 85.9063,10.9731 86.573,11.9731 86.5,13.5C 84.9519,13.1788 84.2852,12.1788 84.5,10.5 Z"/></g>
<g><path style="opacity:0.582" fill="#171a1c" d="M 223.5,11.5 C 219.971,13.4228 215.971,14.0894 211.5,13.5C 211.918,12.7784 212.584,12.2784 213.5,12C 216.817,11.5017 220.15,11.335 223.5,11.5 Z"/></g>
<g><path style="opacity:0.468" fill="#151619" d="M 211.5,13.5 C 211.5,14.8333 211.5,16.1667 211.5,17.5C 206.056,18.1083 201.056,17.4417 196.5,15.5C 201.141,16.1266 205.807,16.4599 210.5,16.5C 210.263,15.209 210.596,14.209 211.5,13.5 Z"/></g>
<g><path style="opacity:0.479" fill="#111213" d="M 44.5,4.5 C 41.3148,4.01964 38.4815,4.68631 36,6.5C 35.5002,17.1615 35.3335,27.8281 35.5,38.5C 34.1667,38.5 32.8333,38.5 31.5,38.5C 32.209,37.596 33.209,37.2627 34.5,37.5C 34.1679,26.4798 34.5012,15.4798 35.5,4.5C 38.4939,2.27412 41.4939,2.27412 44.5,4.5 Z"/></g>
<g><path style="opacity:0.269" fill="#17191b" d="M 130.5,19.5 C 131.267,20.172 131.934,21.0053 132.5,22C 138.167,22.1667 143.833,22.3333 149.5,22.5C 155.741,22.4556 161.741,21.7889 167.5,20.5C 167.5,21.5 167.5,22.5 167.5,23.5C 155.495,23.6665 143.495,23.4999 131.5,23C 130.663,21.9887 130.33,20.8221 130.5,19.5 Z"/></g>
<g><path style="opacity:0.174" fill="#151719" d="M 254.5,26.5 C 254.89,35.5818 255.89,44.5818 257.5,53.5C 256.5,53.5 255.5,53.5 254.5,53.5C 254.5,44.5 254.5,35.5 254.5,26.5 Z"/></g>
<g><path style="opacity:0.308" fill="#141618" d="M 31.5,38.5 C 32.135,47.2337 31.4684,55.5671 29.5,63.5C 30.1393,55.0674 30.806,46.7341 31.5,38.5 Z"/></g>
<g><path style="opacity:0.62" fill="#101213" d="M 257.5,64.5 C 258.708,65.2341 260.041,65.5674 261.5,65.5C 262.269,69.7044 262.269,73.8711 261.5,78C 261.519,79.833 262.185,81.333 263.5,82.5C 262.504,82.5858 261.671,82.2524 261,81.5C 260.501,76.5111 260.334,71.5111 260.5,66.5C 258.821,66.7148 257.821,66.0481 257.5,64.5 Z"/></g>
<g><path style="opacity:0.141" fill="#151619" d="M 263.5,84.5 C 264.483,88.2984 264.817,92.2984 264.5,96.5C 265.791,96.2627 266.791,96.596 267.5,97.5C 266.167,97.5 264.833,97.5 263.5,97.5C 263.5,93.1667 263.5,88.8333 263.5,84.5 Z"/></g>
<g><path style="opacity:0.865" fill="#101112" d="M 25.5,84.5 C 25.5,91.5 25.5,98.5 25.5,105.5C 24.5,105.5 23.5,105.5 22.5,105.5C 22.7828,104.711 23.2828,104.044 24,103.5C 24.1721,96.9867 24.6721,90.6534 25.5,84.5 Z"/></g>
<g><path style="opacity:0.54" fill="#0e0f10" d="M 20.5,130.5 C 20.6757,135.88 20.3424,141.213 19.5,146.5C 18.5,146.5 17.5,146.5 16.5,146.5C 17.0722,144.745 17.9055,143.078 19,141.5C 19.1773,137.644 19.6773,133.977 20.5,130.5 Z"/></g>
<g><path style="opacity:0.263" fill="#141517" d="M 279.5,141.5 C 280.196,149.067 280.863,156.734 281.5,164.5C 279.535,157.24 278.868,149.573 279.5,141.5 Z"/></g>
<g><path style="opacity:0.987" fill="#0e0f10" d="M 16.5,146.5 C 15.4626,159.72 15.4626,172.886 16.5,186C 15.4153,195.815 14.082,205.315 12.5,214.5C 13.2451,194.514 13.7451,174.514 14,154.5C 14.546,151.621 15.3794,148.954 16.5,146.5 Z"/></g>
<g><path style="opacity:0.204" fill="#15171a" d="M 146.5,213.5 C 144.902,215.857 143.902,218.523 143.5,221.5C 143.5,218.167 143.5,214.833 143.5,211.5C 145.179,211.285 146.179,211.952 146.5,213.5 Z"/></g>
<g><path style="opacity:0.174" fill="#0c0d0e" d="M 10.5,222.5 C 11.4959,222.414 12.3292,222.748 13,223.5C 13.4955,225.473 13.6621,227.473 13.5,229.5C 12.5,229.5 11.5,229.5 10.5,229.5C 10.6025,232.219 10.2692,234.885 9.5,237.5C 9.25284,238.713 8.58617,239.38 7.5,239.5C 8.59376,233.842 9.59376,228.175 10.5,222.5 Z"/></g>
<g><path style="opacity:0.335" fill="#18191c" d="M 150.5,226.5 C 152.369,228.635 153.036,231.302 152.5,234.5C 151.629,231.997 150.963,229.33 150.5,226.5 Z"/></g>
<g><path style="opacity:0.042" fill="#202225" d="M 136.5,258.5 C 134.929,264.064 133.929,269.731 133.5,275.5C 133.5,269.833 133.5,264.167 133.5,258.5C 134.5,258.5 135.5,258.5 136.5,258.5 Z"/></g>
<g><path style="opacity:0.412" fill="#121415" d="M 307.5,267.5 C 308.225,271.395 308.891,275.395 309.5,279.5C 307.577,275.971 306.911,271.971 307.5,267.5 Z"/></g>
<g><path style="opacity:0.289" fill="#131417" d="M 161.5,276.5 C 162.833,276.5 164.167,276.5 165.5,276.5C 166.048,283.514 166.715,290.514 167.5,297.5C 166.907,294.5 166.074,291.5 165,288.5C 164.501,284.848 164.335,281.182 164.5,277.5C 163.209,277.737 162.209,277.404 161.5,276.5 Z"/></g>
<g><path style="opacity:0.39" fill="#0f1012" d="M 133.5,276.5 C 131.902,284.078 130.902,291.745 130.5,299.5C 130.5,291.833 130.5,284.167 130.5,276.5C 131.5,276.5 132.5,276.5 133.5,276.5 Z"/></g>
<g><path style="opacity:0.21" fill="#161719" d="M 309.5,280.5 C 310.214,295.359 310.88,310.359 311.5,325.5C 309.516,310.871 308.85,295.871 309.5,280.5 Z"/></g>
<g><path style="opacity:0.157" fill="#1a1c1f" d="M 168.5,300.5 C 169.5,300.5 170.5,300.5 171.5,300.5C 171.5,304.5 171.5,308.5 171.5,312.5C 171.023,308.38 170.023,304.38 168.5,300.5 Z"/></g>
<g><path style="opacity:0.314" fill="#18191b" d="M 1.5,305.5 C 2.12,311.926 1.45334,317.926 -0.5,323.5C -0.5,320.167 -0.5,316.833 -0.5,313.5C 0.166667,310.833 0.833333,308.167 1.5,305.5 Z"/></g>
<g><path style="opacity:0.637" fill="#131415" d="M 127.5,319.5 C 126.223,323.189 125.223,326.856 124.5,330.5C 124.5,326.833 124.5,323.167 124.5,319.5C 125.5,319.5 126.5,319.5 127.5,319.5 Z"/></g>
<g><path style="opacity:0.212" fill="#191b1e" d="M 174.5,325.5 C 175.5,325.5 176.5,325.5 177.5,325.5C 177.5,328.833 177.5,332.167 177.5,335.5C 176.989,332.037 175.989,328.704 174.5,325.5 Z"/></g>
<g><path style="opacity:0.252" fill="#121416" d="M 313.5,331.5 C 310.061,332.019 306.728,333.019 303.5,334.5C 303.5,333.5 303.5,332.5 303.5,331.5C 306.833,331.5 310.167,331.5 313.5,331.5 Z"/></g>
<g><path style="opacity:0.083" fill="#17191c" d="M 300.5,335.5 C 296.605,336.225 292.605,336.891 288.5,337.5C 292.029,335.577 296.029,334.911 300.5,335.5 Z"/></g>
<g><path style="opacity:0.712" fill="#0a0e0c" d="M 123.5,337.5 C 123.802,340.059 123.468,342.393 122.5,344.5C 120.922,347.328 119.589,350.328 118.5,353.5C 118.5,354.5 118.5,355.5 118.5,356.5C 116.517,356.157 115.183,356.824 114.5,358.5C 108.349,359.664 102.349,359.664 96.5,358.5C 101.801,357.623 107.135,356.956 112.5,356.5C 112.477,351.041 114.81,347.041 119.5,344.5C 120.398,341.732 121.731,339.399 123.5,337.5 Z"/></g>
<g><path style="opacity:0.484" fill="#131416" d="M 177.5,337.5 C 178.496,337.414 179.329,337.748 180,338.5C 180.499,342.486 180.666,346.486 180.5,350.5C 179.677,347.023 179.177,343.356 179,339.5C 178.283,338.956 177.783,338.289 177.5,337.5 Z"/></g>
<g><path style="opacity:0.992" fill="#1d2322" d="M 122.5,344.5 C 122.492,347.545 122.159,350.545 121.5,353.5C 120.5,353.5 119.5,353.5 118.5,353.5C 119.589,350.328 120.922,347.328 122.5,344.5 Z"/></g>
<g><path style="opacity:0.327" fill="#0e0f10" d="M 216.5,352.5 C 212.688,353.324 208.688,353.824 204.5,354C 203.934,354.995 203.267,355.828 202.5,356.5C 202.5,355.167 202.5,353.833 202.5,352.5C 207.167,352.5 211.833,352.5 216.5,352.5 Z"/></g>
<g><path style="opacity:0.933" fill="#272f2b" d="M 118.5,353.5 C 119.5,353.5 120.5,353.5 121.5,353.5C 120.539,356.835 118.206,358.501 114.5,358.5C 115.183,356.824 116.517,356.157 118.5,356.5C 118.5,355.5 118.5,354.5 118.5,353.5 Z"/></g>
<g><path style="opacity:0.242" fill="#161719" d="M 70.5,356.5 C 79.5645,355.864 88.2312,356.53 96.5,358.5C 87.7342,357.86 79.0676,357.193 70.5,356.5 Z"/></g>
<g><path style="opacity:0.091" fill="#1a1b1e" d="M 202.5,356.5 C 198.27,357.22 193.937,357.887 189.5,358.5C 193.373,356.57 197.706,355.903 202.5,356.5 Z"/></g>
</svg>
