<?xml version="1.0" encoding="UTF-8"?>
<!DOCTYPE svg PUBLIC "-//W3C//DTD SVG 1.1//EN" "http://www.w3.org/Graphics/SVG/1.1/DTD/svg11.dtd">
<svg xmlns="http://www.w3.org/2000/svg" version="1.1" width="372px" height="343px" style="shape-rendering:geometricPrecision; text-rendering:geometricPrecision; image-rendering:optimizeQuality; fill-rule:evenodd; clip-rule:evenodd" xmlns:xlink="http://www.w3.org/1999/xlink">
<g><path style="opacity:0.999" fill="#000000" d="M 131.5,-0.5 C 135.5,-0.5 139.5,-0.5 143.5,-0.5C 145.751,0.410642 147.751,1.74398 149.5,3.5C 149.5,4.5 149.5,5.5 149.5,6.5C 151.5,6.5 153.5,6.5 155.5,6.5C 156.167,6.5 156.5,6.83333 156.5,7.5C 157.552,9.25605 159.219,9.92271 161.5,9.5C 162.404,10.209 162.737,11.209 162.5,12.5C 165.287,13.4767 168.287,13.81 171.5,13.5C 171.5,14.5 171.5,15.5 171.5,16.5C 172.833,16.5 174.167,16.5 175.5,16.5C 182.355,15.9759 189.355,15.9759 196.5,16.5C 198.167,16.5 199.833,16.5 201.5,16.5C 201.5,15.5 201.5,14.5 201.5,13.5C 203.042,12.8365 204.709,12.1698 206.5,11.5C 207.115,9.88387 208.115,8.55054 209.5,7.5C 212.768,6.51298 216.102,6.17964 219.5,6.5C 219.351,5.44802 219.517,4.44802 220,3.5C 222.853,3.10762 225.02,1.77429 226.5,-0.5C 230.167,-0.5 233.833,-0.5 237.5,-0.5C 238.103,1.67937 238.77,3.84604 239.5,6C 243.951,7.24492 247.785,9.41159 251,12.5C 251.495,14.4727 251.662,16.4727 251.5,18.5C 254.518,18.3354 257.518,18.502 260.5,19C 264.016,23.4364 268.016,27.4364 272.5,31C 274.134,31.4935 275.801,31.6602 277.5,31.5C 276.886,36.0308 278.886,38.1975 283.5,38C 284.222,39.7505 285.222,41.2505 286.5,42.5C 287.918,44.3079 289.918,44.9746 292.5,44.5C 292.694,46.9118 294.027,47.9118 296.5,47.5C 299.831,53.8601 302.497,60.5268 304.5,67.5C 304.5,68.5 304.5,69.5 304.5,70.5C 305.5,70.5 306.5,70.5 307.5,70.5C 308.468,72.6074 308.802,74.9407 308.5,77.5C 308.5,80.1667 308.5,82.8333 308.5,85.5C 309.5,85.5 310.5,85.5 311.5,85.5C 312.019,88.9386 313.019,92.272 314.5,95.5C 314.5,99.8333 314.5,104.167 314.5,108.5C 315.833,108.5 317.167,108.5 318.5,108.5C 318.5,108.833 318.5,109.167 318.5,109.5C 318.077,111.781 318.744,113.448 320.5,114.5C 321.324,118.312 321.824,122.312 322,126.5C 323,127.167 324,127.833 325,128.5C 326.871,136.633 327.705,144.967 327.5,153.5C 327.821,155.048 328.821,155.715 330.5,155.5C 330.5,158.833 330.5,162.167 330.5,165.5C 331.5,165.5 332.5,165.5 333.5,165.5C 333.502,171.523 333.835,177.523 334.5,183.5C 335.5,183.5 336.5,183.5 337.5,183.5C 338.468,194.484 339.468,205.484 340.5,216.5C 341.833,216.5 343.167,216.5 344.5,216.5C 344.5,224.833 344.5,233.167 344.5,241.5C 346.124,241.36 347.29,242.027 348,243.5C 348.807,261.877 348.64,280.21 347.5,298.5C 346.167,298.5 344.833,298.5 343.5,298.5C 343.5,308.167 343.5,317.833 343.5,327.5C 338.92,329.703 333.92,331.036 328.5,331.5C 327.5,334.5 325.5,336.5 322.5,337.5C 320.197,336.319 317.863,336.319 315.5,337.5C 313.962,337.547 312.962,336.88 312.5,335.5C 312.5,332.833 312.5,330.167 312.5,327.5C 311.5,327.5 310.5,327.5 309.5,327.5C 308.834,323.979 308.167,320.313 307.5,316.5C 305.416,314.191 303.916,311.524 303,308.5C 302.667,306.167 302.333,303.833 302,301.5C 299.647,298.731 297.647,295.731 296,292.5C 295.501,288.514 295.334,284.514 295.5,280.5C 294.209,280.737 293.209,280.404 292.5,279.5C 293.01,276.612 292.344,274.279 290.5,272.5C 290.005,269.612 288.505,267.279 286,265.5C 285.501,261.848 285.335,258.182 285.5,254.5C 284.759,251.587 284.259,248.587 284,245.5C 282.989,244.663 281.822,244.33 280.5,244.5C 281.055,240.988 280.388,237.988 278.5,235.5C 277.662,235.158 277.328,234.492 277.5,233.5C 277.38,232.414 276.713,231.747 275.5,231.5C 274.287,231.747 273.62,232.414 273.5,233.5C 271.206,246.504 270.873,259.671 272.5,273C 272.386,276.412 271.719,279.579 270.5,282.5C 268.821,282.285 267.821,282.952 267.5,284.5C 266.708,286.257 265.375,287.591 263.5,288.5C 257.5,289.167 251.5,289.833 245.5,290.5C 245.291,291.086 244.957,291.586 244.5,292C 241.421,292.685 238.421,293.519 235.5,294.5C 232.639,294.658 229.972,293.992 227.5,292.5C 223.804,293.871 220.137,294.871 216.5,295.5C 216.67,296.822 216.337,297.989 215.5,299C 205.329,299.76 195.162,300.593 185,301.5C 180.653,301.499 176.486,301.166 172.5,300.5C 166.25,298.541 159.584,297.874 152.5,298.5C 152.586,297.504 152.252,296.671 151.5,296C 142.518,296.139 133.852,294.972 125.5,292.5C 125.67,291.178 125.337,290.011 124.5,289C 118.509,288.501 112.509,288.334 106.5,288.5C 103.082,286.362 100.082,283.696 97.5,280.5C 97.5907,269.7 97.9241,258.867 98.5,248C 98.3333,245.833 98.1667,243.667 98,241.5C 96.4412,239.783 95.6079,237.783 95.5,235.5C 94.5,235.5 93.5,235.5 92.5,235.5C 92.6621,237.527 92.4955,239.527 92,241.5C 90.3344,245.94 88.1677,249.94 85.5,253.5C 83.5977,256.337 82.931,259.671 83.5,263.5C 82.1667,263.5 80.8333,263.5 79.5,263.5C 79.5,268.833 79.5,274.167 79.5,279.5C 78.1779,279.33 77.0113,279.663 76,280.5C 75.5045,282.473 75.3379,284.473 75.5,286.5C 73.744,287.552 73.0773,289.219 73.5,291.5C 73.5,292.167 73.1667,292.5 72.5,292.5C 71.5,292.5 70.5,292.5 69.5,292.5C 69.5,295.5 69.5,298.5 69.5,301.5C 68.2008,303.412 67.2008,305.412 66.5,307.5C 65.5,307.5 64.5,307.5 63.5,307.5C 63.5,308.833 63.5,310.167 63.5,311.5C 63.5,313.5 63.5,315.5 63.5,317.5C 62.5,317.5 61.5,317.5 60.5,317.5C 60.5,320.833 60.5,324.167 60.5,327.5C 59.1667,327.5 57.8333,327.5 56.5,327.5C 56.5,330.5 56.5,333.5 56.5,336.5C 53.5,336.5 50.5,336.5 47.5,336.5C 45.3364,336.279 43.6697,335.279 42.5,333.5C 42.5,332.167 42.5,330.833 42.5,329.5C 40.5168,329.157 39.1834,329.824 38.5,331.5C 38.5,332.167 38.5,332.833 38.5,333.5C 37.5,333.5 36.5,333.5 35.5,333.5C 35.7148,331.821 35.0481,330.821 33.5,330.5C 32.8333,330.5 32.5,330.167 32.5,329.5C 32.1788,327.952 31.1788,327.285 29.5,327.5C 28.1667,327.5 26.8333,327.5 25.5,327.5C 25.5,316.833 25.5,306.167 25.5,295.5C 24.5,295.5 23.5,295.5 22.5,295.5C 21.1845,279.503 21.1845,263.503 22.5,247.5C 23.5,247.5 24.5,247.5 25.5,247.5C 25.3335,237.494 25.5002,227.494 26,217.5C 27.2081,215.521 28.0414,213.355 28.5,211C 27.227,208.784 27.227,206.617 28.5,204.5C 29.8333,204.5 31.1667,204.5 32.5,204.5C 32.5,197.833 32.5,191.167 32.5,184.5C 34.2094,179.456 35.0428,174.122 35,168.5C 36,167.833 37,167.167 38,166.5C 38.4992,161.845 38.6658,157.179 38.5,152.5C 39.5,152.5 40.5,152.5 41.5,152.5C 41.3347,148.818 41.5014,145.152 42,141.5C 42.6667,140.833 43.3333,140.167 44,139.5C 44.1805,136.305 44.6805,133.305 45.5,130.5C 47.1788,130.715 48.1788,130.048 48.5,128.5C 48.5,124.5 48.5,120.5 48.5,116.5C 48.1774,112.774 48.5108,109.107 49.5,105.5C 50.086,105.291 50.586,104.957 51,104.5C 51.4995,98.1754 51.6662,91.8421 51.5,85.5C 54.2017,84.1317 56.2017,82.1317 57.5,79.5C 58.8333,79.5 60.1667,79.5 61.5,79.5C 62.3467,75.2005 63.0133,70.8672 63.5,66.5C 63.5,65.8333 63.5,65.1667 63.5,64.5C 64.8333,64.5 66.1667,64.5 67.5,64.5C 67.5,61.5 67.5,58.5 67.5,55.5C 68.4446,52.0132 70.7779,50.6799 74.5,51.5C 76.3435,49.7211 77.0102,47.3878 76.5,44.5C 79.3878,45.0102 81.7211,44.3435 83.5,42.5C 83.5,42.1667 83.5,41.8333 83.5,41.5C 84.5,41.5 85.5,41.5 86.5,41.5C 86.5,40.1667 86.5,38.8333 86.5,37.5C 87.1667,37.5 87.8333,37.5 88.5,37.5C 90.929,36.7352 92.2623,35.0685 92.5,32.5C 95.4761,31.2107 98.4761,29.8774 101.5,28.5C 101.263,27.209 101.596,26.209 102.5,25.5C 105.172,25.0523 107.172,23.719 108.5,21.5C 108.5,20.8333 108.5,20.1667 108.5,19.5C 110.5,19.5 112.5,19.5 114.5,19.5C 114.5,18.5 114.5,17.5 114.5,16.5C 115.167,16.5 115.833,16.5 116.5,16.5C 117.5,16.5 118.5,16.5 119.5,16.5C 119.5,15.5 119.5,14.5 119.5,13.5C 121.467,13.7394 123.301,13.4061 125,12.5C 126.751,9.74847 127.584,6.74847 127.5,3.5C 129.328,2.71721 130.661,1.38388 131.5,-0.5 Z"/></g>
<g><path style="opacity:0.162" fill="#181a1d" d="M 149.5,3.5 C 151.361,4.84187 153.361,5.84187 155.5,6.5C 153.5,6.5 151.5,6.5 149.5,6.5C 149.5,5.5 149.5,4.5 149.5,3.5 Z"/></g>
<g><path style="opacity:0.584" fill="#141618" d="M 156.5,7.5 C 158.553,7.40206 160.22,8.06873 161.5,9.5C 159.219,9.92271 157.552,9.25605 156.5,7.5 Z"/></g>
<g><path style="opacity:0.643" fill="#101113" d="M 127.5,3.5 C 127.584,6.74847 126.751,9.74847 125,12.5C 123.301,13.4061 121.467,13.7394 119.5,13.5C 119.5,14.5 119.5,15.5 119.5,16.5C 118.5,16.5 117.5,16.5 116.5,16.5C 117.806,15.5326 118.473,14.1993 118.5,12.5C 120.262,12.6427 121.929,12.3094 123.5,11.5C 125.376,8.999 126.709,6.33233 127.5,3.5 Z"/></g>
<g><path style="opacity:0.521" fill="#0f1012" d="M 162.5,12.5 C 165.833,12.5 169.167,12.5 172.5,12.5C 172.5,13.5 172.5,14.5 172.5,15.5C 173.791,15.2627 174.791,15.596 175.5,16.5C 174.167,16.5 172.833,16.5 171.5,16.5C 171.5,15.5 171.5,14.5 171.5,13.5C 168.287,13.81 165.287,13.4767 162.5,12.5 Z"/></g>
<g><path style="opacity:0.067" fill="#181a1d" d="M 201.5,13.5 C 201.5,14.5 201.5,15.5 201.5,16.5C 199.833,16.5 198.167,16.5 196.5,16.5C 198.294,15.7671 199.961,14.7671 201.5,13.5 Z"/></g>
<g><path style="opacity:0.625" fill="#151618" d="M 114.5,16.5 C 114.5,17.5 114.5,18.5 114.5,19.5C 112.5,19.5 110.5,19.5 108.5,19.5C 110.25,18.1302 112.25,17.1302 114.5,16.5 Z"/></g>
<g><path style="opacity:0.722" fill="#141517" d="M 108.5,21.5 C 107.172,23.719 105.172,25.0523 102.5,25.5C 104.06,23.5712 106.06,22.2378 108.5,21.5 Z"/></g>
<g><path style="opacity:0.18" fill="#1d1e22" d="M 92.5,32.5 C 92.2623,35.0685 90.929,36.7352 88.5,37.5C 89.4839,35.5201 90.8173,33.8534 92.5,32.5 Z"/></g>
<g><path style="opacity:0.259" fill="#1c1d20" d="M 86.5,37.5 C 86.5,38.8333 86.5,40.1667 86.5,41.5C 85.5,41.5 84.5,41.5 83.5,41.5C 84.6588,40.2597 85.6588,38.9264 86.5,37.5 Z"/></g>
<g><path style="opacity:0.409" fill="#19191c" d="M 83.5,42.5 C 81.7211,44.3435 79.3878,45.0102 76.5,44.5C 78.7146,43.7321 81.0479,43.0654 83.5,42.5 Z"/></g>
<g><path style="opacity:0.529" fill="#121415" d="M 286.5,42.5 C 288.698,42.8751 290.698,43.5418 292.5,44.5C 289.918,44.9746 287.918,44.3079 286.5,42.5 Z"/></g>
<g><path style="opacity:0.26" fill="#191a1d" d="M 76.5,44.5 C 77.0102,47.3878 76.3435,49.7211 74.5,51.5C 75.0654,49.0479 75.7321,46.7146 76.5,44.5 Z"/></g>
<g><path style="opacity:0.073" fill="#1f2023" d="M 67.5,55.5 C 67.5,58.5 67.5,61.5 67.5,64.5C 66.1667,64.5 64.8333,64.5 63.5,64.5C 64.209,63.596 65.209,63.2627 66.5,63.5C 66.1936,60.6146 66.5269,57.9479 67.5,55.5 Z"/></g>
<g><path style="opacity:0.073" fill="#1c1d21" d="M 304.5,67.5 C 305.5,68.5 306.5,69.5 307.5,70.5C 306.5,70.5 305.5,70.5 304.5,70.5C 304.5,69.5 304.5,68.5 304.5,67.5 Z"/></g>
<g><path style="opacity:0.58" fill="#131517" d="M 63.5,66.5 C 63.0133,70.8672 62.3467,75.2005 61.5,79.5C 60.1667,79.5 58.8333,79.5 57.5,79.5C 58.172,78.7326 59.0053,78.0659 60,77.5C 61.0395,73.6905 62.2061,70.0238 63.5,66.5 Z"/></g>
<g><path style="opacity:0.301" fill="#181a1d" d="M 308.5,77.5 C 309.065,80.305 310.065,82.9717 311.5,85.5C 310.5,85.5 309.5,85.5 308.5,85.5C 308.5,82.8333 308.5,80.1667 308.5,77.5 Z"/></g>
<g><path style="opacity:0.265" fill="#111214" d="M 314.5,95.5 C 315.483,99.2984 315.817,103.298 315.5,107.5C 316.791,107.263 317.791,107.596 318.5,108.5C 317.167,108.5 315.833,108.5 314.5,108.5C 314.5,104.167 314.5,99.8333 314.5,95.5 Z"/></g>
<g><path style="opacity:0.337" fill="#191b1c" d="M 51.5,85.5 C 51.6662,91.8421 51.4995,98.1754 51,104.5C 50.586,104.957 50.086,105.291 49.5,105.5C 48.5108,109.107 48.1774,112.774 48.5,116.5C 47.1905,112.649 47.1905,108.649 48.5,104.5C 49.086,104.291 49.586,103.957 50,103.5C 50.7722,99.1103 50.6055,94.777 49.5,90.5C 50.0276,88.6639 50.6942,86.9972 51.5,85.5 Z"/></g>
<g><path style="opacity:0.116" fill="#1e2023" d="M 318.5,109.5 C 319.309,111.028 319.976,112.694 320.5,114.5C 318.744,113.448 318.077,111.781 318.5,109.5 Z"/></g>
<g><path style="opacity:0.376" fill="#191b1d" d="M 48.5,128.5 C 48.1788,130.048 47.1788,130.715 45.5,130.5C 46.2905,129.599 47.2905,128.932 48.5,128.5 Z"/></g>
<g><path style="opacity:0.756" fill="#121416" d="M 327.5,153.5 C 328.901,153.971 330.234,154.638 331.5,155.5C 332.168,158.863 332.835,162.197 333.5,165.5C 332.5,165.5 331.5,165.5 330.5,165.5C 330.5,162.167 330.5,158.833 330.5,155.5C 328.821,155.715 327.821,155.048 327.5,153.5 Z"/></g>
<g><path style="opacity:0.045" fill="#1c1d20" d="M 32.5,184.5 C 32.5,191.167 32.5,197.833 32.5,204.5C 31.1667,204.5 29.8333,204.5 28.5,204.5C 29.209,203.596 30.209,203.263 31.5,203.5C 31.1765,196.978 31.5098,190.645 32.5,184.5 Z"/></g>
<g><path style="opacity:0.027" fill="#171a1c" d="M 277.5,233.5 C 276.167,232.167 274.833,232.167 273.5,233.5C 273.62,232.414 274.287,231.747 275.5,231.5C 276.713,231.747 277.38,232.414 277.5,233.5 Z"/></g>
<g><path style="opacity:0.587" fill="#111214" d="M 278.5,235.5 C 280.388,237.988 281.055,240.988 280.5,244.5C 281.822,244.33 282.989,244.663 284,245.5C 284.259,248.587 284.759,251.587 285.5,254.5C 283.78,252.342 282.947,249.675 283,246.5C 281.989,245.663 280.822,245.33 279.5,245.5C 279.658,242.098 279.324,238.764 278.5,235.5 Z"/></g>
<g><path style="opacity:0.605" fill="#151719" d="M 85.5,253.5 C 84.8998,257.129 84.2332,260.796 83.5,264.5C 82.8333,264.833 82.1667,265.167 81.5,265.5C 80.5059,270.456 80.1725,275.456 80.5,280.5C 79.1779,280.33 78.0113,280.663 77,281.5C 76.8019,283.382 76.3019,285.048 75.5,286.5C 75.3379,284.473 75.5045,282.473 76,280.5C 77.0113,279.663 78.1779,279.33 79.5,279.5C 79.5,274.167 79.5,268.833 79.5,263.5C 80.8333,263.5 82.1667,263.5 83.5,263.5C 82.931,259.671 83.5977,256.337 85.5,253.5 Z"/></g>
<g><path style="opacity:0.235" fill="#181a1c" d="M 290.5,272.5 C 292.344,274.279 293.01,276.612 292.5,279.5C 291.593,277.343 290.927,275.01 290.5,272.5 Z"/></g>
<g><path style="opacity:0.104" fill="#222327" d="M 270.5,282.5 C 269.71,283.401 268.71,284.068 267.5,284.5C 267.821,282.952 268.821,282.285 270.5,282.5 Z"/></g>
<g><path style="opacity:0.105" fill="#181a1d" d="M 75.5,286.5 C 74.9759,288.306 74.3092,289.972 73.5,291.5C 73.0773,289.219 73.744,287.552 75.5,286.5 Z"/></g>
<g><path style="opacity:0.189" fill="#141517" d="M 106.5,288.5 C 112.509,288.334 118.509,288.501 124.5,289C 125.337,290.011 125.67,291.178 125.5,292.5C 124.733,291.828 124.066,290.995 123.5,290C 117.652,289.827 111.985,289.327 106.5,288.5 Z"/></g>
<g><path style="opacity:0.27" fill="#141618" d="M 72.5,292.5 C 71.0466,295.394 70.0466,298.394 69.5,301.5C 69.5,298.5 69.5,295.5 69.5,292.5C 70.5,292.5 71.5,292.5 72.5,292.5 Z"/></g>
<g><path style="opacity:0.289" fill="#0e0f11" d="M 235.5,294.5 C 232.741,295.968 230.074,295.634 227.5,293.5C 224.101,295.312 220.434,295.979 216.5,295.5C 220.137,294.871 223.804,293.871 227.5,292.5C 229.972,293.992 232.639,294.658 235.5,294.5 Z"/></g>
<g><path style="opacity:0.311" fill="#121315" d="M 152.5,298.5 C 159.584,297.874 166.25,298.541 172.5,300.5C 165.733,299.868 159.067,299.201 152.5,298.5 Z"/></g>
<g><path style="opacity:0.128" fill="#1c1d20" d="M 347.5,298.5 C 347.189,299.478 346.522,300.145 345.5,300.5C 344.833,309.658 344.167,318.658 343.5,327.5C 343.5,317.833 343.5,308.167 343.5,298.5C 344.833,298.5 346.167,298.5 347.5,298.5 Z"/></g>
<g><path style="opacity:0.048" fill="#242529" d="M 66.5,307.5 C 65.3412,308.74 64.3412,310.074 63.5,311.5C 63.5,310.167 63.5,308.833 63.5,307.5C 64.5,307.5 65.5,307.5 66.5,307.5 Z"/></g>
<g><path style="opacity:0.356" fill="#121416" d="M 63.5,317.5 C 61.6764,320.846 61.0097,324.513 61.5,328.5C 60.1667,328.5 58.8333,328.5 57.5,328.5C 57.8273,331.482 57.8273,334.315 57.5,337C 53.9733,337.808 50.6399,337.641 47.5,336.5C 50.5,336.5 53.5,336.5 56.5,336.5C 56.5,333.5 56.5,330.5 56.5,327.5C 57.8333,327.5 59.1667,327.5 60.5,327.5C 60.5,324.167 60.5,320.833 60.5,317.5C 61.5,317.5 62.5,317.5 63.5,317.5 Z"/></g>
<g><path style="opacity:0.086" fill="#1b1d20" d="M 29.5,327.5 C 31.1788,327.285 32.1788,327.952 32.5,329.5C 31.2905,329.068 30.2905,328.401 29.5,327.5 Z"/></g>
<g><path style="opacity:0.541" fill="#161719" d="M 42.5,333.5 C 41.8423,332.602 41.1757,331.602 40.5,330.5C 39.8165,330.863 39.1499,331.196 38.5,331.5C 39.1834,329.824 40.5168,329.157 42.5,329.5C 42.5,330.833 42.5,332.167 42.5,333.5 Z"/></g>
<g><path style="opacity:0.015" fill="#222428" d="M 309.5,327.5 C 310.5,327.5 311.5,327.5 312.5,327.5C 312.5,330.167 312.5,332.833 312.5,335.5C 311.918,332.728 310.918,330.061 309.5,327.5 Z"/></g>
<g><path style="opacity:0.359" fill="#161719" d="M 33.5,330.5 C 35.0481,330.821 35.7148,331.821 35.5,333.5C 36.5,333.5 37.5,333.5 38.5,333.5C 37.4324,334.434 36.099,334.768 34.5,334.5C 34.5674,333.041 34.2341,331.708 33.5,330.5 Z"/></g>
</svg>
