<?xml version="1.0" encoding="UTF-8"?>
<!DOCTYPE svg PUBLIC "-//W3C//DTD SVG 1.1//EN" "http://www.w3.org/Graphics/SVG/1.1/DTD/svg11.dtd">
<svg xmlns="http://www.w3.org/2000/svg" version="1.1" width="362px" height="415px" style="shape-rendering:geometricPrecision; text-rendering:geometricPrecision; image-rendering:optimizeQuality; fill-rule:evenodd; clip-rule:evenodd" xmlns:xlink="http://www.w3.org/1999/xlink">
<g><path style="opacity:0.999" fill="#000000" d="M 229.5,-0.5 C 234.5,-0.5 239.5,-0.5 244.5,-0.5C 258.084,6.72417 272.751,11.7242 288.5,14.5C 288.5,15.5 288.5,16.5 288.5,17.5C 295.766,19.6222 303.099,21.6222 310.5,23.5C 316.054,29.6819 319.221,37.0152 320,45.5C 321,46.1667 322,46.8333 323,47.5C 327.857,60.0288 333.191,72.3622 339,84.5C 339.497,87.146 339.664,89.8127 339.5,92.5C 340.822,92.33 341.989,92.6634 343,93.5C 344.545,98.6752 346.545,103.675 349,108.5C 350,109.167 351,109.833 352,110.5C 353.482,117.936 355.649,125.103 358.5,132C 357.696,138.313 354.362,142.813 348.5,145.5C 344.999,150.497 340.999,154.997 336.5,159C 333.351,161.29 330.017,163.29 326.5,165C 322.758,169.73 318.092,173.397 312.5,176C 309.059,181.529 304.059,184.362 297.5,184.5C 297.67,185.822 297.337,186.989 296.5,188C 293.284,188.003 290.617,189.169 288.5,191.5C 283.284,186.378 280.784,180.045 281,172.5C 280.667,172.833 280.333,173.167 280,173.5C 279.461,201.015 279.461,228.682 280,256.5C 281.039,257.244 281.539,258.244 281.5,259.5C 281.5,269.167 281.5,278.833 281.5,288.5C 282.5,288.5 283.5,288.5 284.5,288.5C 285.239,295.015 285.905,301.682 286.5,308.5C 285.401,311.359 285.901,314.026 288,316.5C 289.291,331.076 290.791,345.743 292.5,360.5C 293.086,360.709 293.586,361.043 294,361.5C 294.333,366.5 294.667,371.5 295,376.5C 295.915,377.328 296.581,378.328 297,379.5C 297.667,385.5 297.667,391.5 297,397.5C 295.587,398.912 293.92,399.912 292,400.5C 284.934,402.286 277.768,403.286 270.5,403.5C 270.67,404.822 270.337,405.989 269.5,407C 251.482,407.158 233.649,408.324 216,410.5C 206.84,409.259 197.673,409.259 188.5,410.5C 182.318,410.291 176.318,409.458 170.5,408C 159.167,407.667 147.833,407.333 136.5,407C 135.663,405.989 135.33,404.822 135.5,403.5C 125.596,404.154 115.929,403.32 106.5,401C 96.6225,399.522 86.6225,398.522 76.5,398C 75.8333,397 75.1667,396 74.5,395C 70.8333,394.667 67.1667,394.333 63.5,394C 62.3128,392.981 61.3128,391.814 60.5,390.5C 62.2317,384.713 63.065,378.713 63,372.5C 64.0113,371.663 65.1779,371.33 66.5,371.5C 66.3337,364.159 66.5003,356.826 67,349.5C 69.0344,347.302 69.8677,344.636 69.5,341.5C 69.3591,338.642 69.0258,335.808 68.5,333C 68.6583,330.851 69.4916,329.017 71,327.5C 71.4998,318.173 71.6665,308.839 71.5,299.5C 72.8221,299.67 73.9887,299.337 75,298.5C 76.4937,279.527 77.4937,260.527 78,241.5C 78.9734,239.608 79.6401,237.608 80,235.5C 80.1966,227.089 80.6966,218.755 81.5,210.5C 83.4784,199.215 84.1451,187.548 83.5,175.5C 82.5,175.5 81.5,175.5 80.5,175.5C 80.5,178.5 80.5,181.5 80.5,184.5C 81.8908,190.947 79.2241,193.78 72.5,193C 67.8386,191.461 63.1719,189.794 58.5,188C 57.8333,187 57.1667,186 56.5,185C 52.028,185.013 48.3613,183.347 45.5,180C 38.2413,176.707 30.908,173.374 23.5,170C 21.6385,168.972 20.3052,167.472 19.5,165.5C 13.1667,163.833 9.16667,159.833 7.5,153.5C 5.66339,152.162 3.99672,150.662 2.5,149C 2.24509,144.608 2.24509,140.108 2.5,135.5C 3.5,135.5 4.5,135.5 5.5,135.5C 8.01306,127.702 11.0131,120.035 14.5,112.5C 15.5,112.5 16.5,112.5 17.5,112.5C 17.3367,110.143 17.5034,107.81 18,105.5C 22.7999,96.1543 27.2999,86.8209 31.5,77.5C 32.209,78.404 33.209,78.7373 34.5,78.5C 34.5,77.5 34.5,76.5 34.5,75.5C 33.5,75.5 32.5,75.5 31.5,75.5C 33.0857,72.7431 34.0857,69.7431 34.5,66.5C 35.5,66.5 36.5,66.5 37.5,66.5C 38.3133,61.0669 40.3133,56.0669 43.5,51.5C 44.5,51.5 45.5,51.5 46.5,51.5C 46.7845,49.5853 46.4511,47.9187 45.5,46.5C 46.7193,41.1059 49.0526,36.2725 52.5,32C 57.2422,29.5542 62.2422,27.5542 67.5,26C 68.5,25 69.5,24 70.5,23C 73.9476,21.7935 77.2809,20.2935 80.5,18.5C 82.396,17.5344 84.396,17.2011 86.5,17.5C 86.5,16.5 86.5,15.5 86.5,14.5C 90.5869,12.9582 94.5869,11.1248 98.5,9C 104.195,7.88551 109.861,6.71885 115.5,5.5C 116.116,9.86324 116.95,14.1966 118,18.5C 119.683,20.5136 121.683,22.1802 124,23.5C 127.233,30.5779 131.4,37.0779 136.5,43C 140.018,43.415 142.351,45.2484 143.5,48.5C 146.068,50.7172 149.068,51.8839 152.5,52C 153.337,53.0113 153.67,54.1779 153.5,55.5C 156.722,55.1081 159.722,55.6081 162.5,57C 172.386,58.071 182.053,57.4044 191.5,55C 196.333,52.4054 200.666,49.072 204.5,45C 206.218,44.654 207.885,44.154 209.5,43.5C 215.895,35.8734 221.729,27.8734 227,19.5C 227.063,12.6784 227.896,6.01171 229.5,-0.5 Z"/></g>
<g><path style="opacity:0.583" fill="#817685" d="M 45.5,46.5 C 46.4511,47.9187 46.7845,49.5853 46.5,51.5C 45.5,51.5 44.5,51.5 43.5,51.5C 44.1667,49.8333 44.8333,48.1667 45.5,46.5 Z"/></g>
<g><path style="opacity:1" fill="#251625" d="M 319.5,52.5 C 320.5,52.5 321.5,52.5 322.5,52.5C 322.5,53.5 322.5,54.5 322.5,55.5C 321.5,55.5 320.5,55.5 319.5,55.5C 319.5,54.5 319.5,53.5 319.5,52.5 Z"/></g>
<g><path style="opacity:0.129" fill="#5c5664" d="M 31.5,75.5 C 32.5,75.5 33.5,75.5 34.5,75.5C 34.5,76.5 34.5,77.5 34.5,78.5C 33.209,78.7373 32.209,78.404 31.5,77.5C 31.5,76.8333 31.5,76.1667 31.5,75.5 Z"/></g>
<g><path style="opacity:0.384" fill="#17181a" d="M 81.5,210.5 C 82.6425,199.576 82.8091,188.576 82,177.5C 81.8138,180.036 81.3138,182.369 80.5,184.5C 80.5,181.5 80.5,178.5 80.5,175.5C 81.5,175.5 82.5,175.5 83.5,175.5C 84.1451,187.548 83.4784,199.215 81.5,210.5 Z"/></g>
<g><path style="opacity:0.095" fill="#191a1d" d="M 281.5,259.5 C 281.886,269.246 282.886,278.912 284.5,288.5C 283.5,288.5 282.5,288.5 281.5,288.5C 281.5,278.833 281.5,269.167 281.5,259.5 Z"/></g>
</svg>
